<?xml version="1.0" standalone="no"?>
<!DOCTYPE svg PUBLIC "-//W3C//DTD SVG 1.1//EN" "http://www.w3.org/Graphics/SVG/1.1/DTD/svg11.dtd">
<svg xmlns="http://www.w3.org/2000/svg">
<defs >
<font id="Nunito" horiz-adv-x="566" ><font-face
    font-family="Nunito Medium"
    units-per-em="1000"
    panose-1="0 0 0 0 0 0 0 0 0 0"
    ascent="1011"
    descent="-353"
    alphabetic="0" />
<glyph unicode=" " glyph-name="space" horiz-adv-x="261" />
<glyph unicode="!" glyph-name="exclam" horiz-adv-x="233" d="M110 188Q96 188 89 195T83 221L130 659Q132 686 147 699T187 712Q214 712 227 695T233 648L142 216Q140 203 132 196T110 188ZM88 -4Q62 -4 45 13T28 56Q28 82 45 98T88 114Q116 114 131 98T147
56Q147 30 132 13T88 -4Z" />
<glyph unicode="&quot;" glyph-name="quotedbl" horiz-adv-x="405" d="M144 418Q129 418 121 426T114 456L130 666Q132 686 145 699T181 712Q198 712 209 706T226 687T227 655L180 451Q176 433 166 426T144 418ZM322 418Q307 418 299 426T292 456L308 666Q310
686 323 699T359 712Q376 712 387 706T404 687T405 655L358 451Q354 433 344 426T322 418Z" />
<glyph unicode="#" glyph-name="numbersign" horiz-adv-x="600" d="M83 -7Q65 -7 60 5T61 40L116 191L138 180H65Q58 180 50 181T35 189T28 208Q28 224 38 233T68 243H158L131 236L218 482L238 470H131Q125 470 117 471T102 479T95 498Q95 515 105 524T135 534H260L232
522L288 680Q294 696 304 704T330 712Q347 712 353 700T351 666L304 534H456L508 680Q514 696 524 704T551 712Q568 712 574 700T572 666L521 522L499 534H571Q579 534 587 532T601 524T608 506Q608 489 598 480T568 470H479L507 482L420 236L399 243H505Q512 243
520 242T535 234T541 215Q541 199 531 190T502 180H377L405 191L345 25Q339 9 329 1T303 -7Q285 -7 280 5T281 40L331 180H180L125 25Q120 9 109 1T83 -7ZM202 243H354L434 470H282L202 243Z" />
<glyph unicode="$" glyph-name="dollar" horiz-adv-x="600" d="M256 -122Q237 -122 228 -111T221 -78L235 12L248 -5Q189 -2 137 15T46 60Q32 69 28 82T25 107T37 129T59 139T88 131Q128 104 177 90T289 75Q336 75 373 88T431 126T453 189Q453 218 442 238T404
274T330 302L239 325Q169 344 128 386T86 504Q86 571 122 617T220 687T355 710L344 698L359 791Q361 806 372 814T399 823Q414 823 425 813T432 782L419 697L412 705Q456 698 497 680T572 633Q582 625 584 614T584 591T573 572T551 564T522 574Q485 602 443 616T351
630Q272 630 226 599T179 511Q179 464 203 440T275 403L366 379Q459 355 502 311T546 199Q546 134 511 90T419 21T293 -5L311 13L294 -90Q292 -105 282 -113T256 -122Z" />
<glyph unicode="%" glyph-name="percent" horiz-adv-x="933" d="M270 -1Q261 -14 250 -18T228 -19T210 -7T203 13T213 39L696 702Q705 715 717 719T739 720T757 709T764 689T754 664L270 -1ZM240 281Q169 281 129 324T89 444Q89 518 112 579T181 676T291 712Q363
712 402 669T442 549Q442 475 419 414T350 317T240 281ZM240 344Q281 344 308 372T349 446T365 546Q367 601 347 625T291 649Q250 649 223 622T182 548T166 447Q164 392 184 368T240 344ZM676 -9Q605 -9 566 34T526 153Q526 227 549 288T617 386T727 422Q799 422
838 378T878 259Q878 184 855 123T787 27T676 -9ZM676 54Q717 54 744 81T786 155T802 256Q803 311 783 335T728 359Q687 359 660 331T618 257T602 157Q600 102 620 78T676 54Z" />
<glyph unicode="&amp;" glyph-name="ampersand" horiz-adv-x="701" d="M256 -9Q192 -9 145 10T73 65T48 150Q48 190 63 225T104 289T163 343T230 386L266 406L252 387Q218 428 204 465T190 535Q190 588 215 628T284 691T386 714Q453 714 493 678T534 583Q534 534
510 497T444 430T350 370L352 394L504 191H486Q506 218 520 247T547 311T570 388Q575 405 585 413T613 422Q633 422 643 412T647 380Q634 327 618 285T582 206T534 134L533 159L615 53Q627 39 626 25T613 1T583 -8Q573 -8 563 -5T545 8L477 99L499 98Q452 48 391
20T256 -9ZM266 65Q325 65 371 87T455 155L451 128L277 355L310 352L277 333Q239 311 208 286T158 231T139 161Q139 115 171 90T266 65ZM382 646Q334 646 305 617T275 542Q275 524 280 507T296 471T328 424L307 425Q361 454 393 477T441 525T456 579Q456 610 436
628T382 646Z" />
<glyph unicode="&apos;" glyph-name="quotesingle" horiz-adv-x="226" d="M144 418Q129 418 121 426T114 456L130 666Q132 686 145 699T181 712Q198 712 209 706T226 687T227 655L180 451Q176 433 166 426T144 418Z" />
<glyph unicode="(" glyph-name="parenleft" horiz-adv-x="326" d="M142 -155Q121 -82 110 -13T98 124Q98 232 121 334T184 528T277 692Q288 708 303 710T330 707T348 686T343 654Q297 569 264 481T213 299T196 99Q196 62 198 24T206 -53T218 -133Q222 -154 213
-167T189 -183T161 -180T142 -155Z" />
<glyph unicode=")" glyph-name="parenright" horiz-adv-x="326" d="M56 -165Q44 -179 29 -182T2 -179T-15 -160T-11 -128Q36 -43 69 45T119 228T137 427Q137 465 135 502T127 579T115 659Q111 680 120 693T143 709T171 706T191 681Q212 609 223 539T234 402Q234
295 212 193T149 1T56 -165Z" />
<glyph unicode="*" glyph-name="asterisk" horiz-adv-x="451" d="M173 365Q159 374 158 387T166 417L234 525L247 506L119 502Q100 501 89 509T77 534Q77 549 88 557T119 564L247 559L234 541L166 649Q156 666 158 680T174 701Q187 710 200 703T222 679L277 572H266L320
679Q329 696 342 703T370 701Q383 693 384 679T376 649L308 542L296 559L424 564Q443 566 454 558T465 534Q465 517 454 509T424 502L296 506L308 525L376 417Q386 401 385 388T370 366Q355 358 342 364T320 387L266 494H277L221 387Q213 370 200 364T173 365Z"
/>
<glyph unicode="+" glyph-name="plus" horiz-adv-x="600" d="M269 33Q252 33 244 44T238 75L266 253H92Q75 253 66 260T56 281Q56 299 66 310T96 321H277L305 500Q308 517 317 526T344 535Q362 535 370 525T374 494L347 321H521Q540 321 549 314T558 293Q558 274
548 264T518 253H336L308 68Q305 51 296 42T269 33Z" />
<glyph unicode="," glyph-name="comma" horiz-adv-x="233" d="M77 -100Q65 -111 53 -111T34 -105T26 -86T38 -63Q60 -41 70 -23T84 20L91 -4Q63 -4 46 12T28 56Q28 82 44 98T87 114Q114 114 128 96T143 49Q143 21 136 -5T114 -54T77 -100Z" />
<glyph unicode="-" glyph-name="hyphen" horiz-adv-x="427" d="M108 229Q87 229 78 237T68 259Q68 278 78 290T109 303H328Q348 303 358 296T368 274Q368 255 357 242T325 229H108Z" />
<glyph unicode="." glyph-name="period" horiz-adv-x="233" d="M88 -4Q62 -4 45 13T28 56Q28 82 45 98T88 114Q116 114 131 98T147 56Q147 30 132 13T88 -4Z" />
<glyph unicode="/" glyph-name="slash" horiz-adv-x="290" d="M17 -36Q10 -50 0 -55T-22 -58T-41 -49T-52 -31T-48 -5L302 725Q309 739 319 744T341 747T361 738T372 720T368 694L17 -36Z" />
<glyph unicode="0" glyph-name="zero" horiz-adv-x="600" d="M288 -9Q179 -9 122 58T64 251Q64 395 98 498T196 658T347 714Q457 714 514 648T571 455Q571 311 537 207T439 47T288 -9ZM293 70Q378 70 428 172T479 473Q480 555 446 595T342 635Q258 635 207 533T156
232Q156 151 190 111T293 70Z" />
<glyph unicode="1" glyph-name="one" horiz-adv-x="600" d="M124 0Q104 0 93 8T81 35Q81 55 94 67T129 79H255L342 629L390 624L238 533Q222 524 209 525T188 535T177 556T179 580T200 601L355 695Q370 704 382 708T407 712Q426 712 435 700T441 666L348 79H457Q477
79 488 71T499 45Q499 25 487 13T452 0H124Z" />
<glyph unicode="2" glyph-name="two" horiz-adv-x="600" d="M101 0Q81 0 69 9T56 37Q56 51 63 63T87 90L336 322Q393 375 429 426T465 534Q465 581 433 607T344 634Q306 634 266 620T183 577Q169 568 157 569T136 578T124 597T125 621T143 643Q188 676 244 695T359
714Q419 714 464 693T533 634T558 547Q558 490 536 442T477 351T392 266L157 52L156 79H474Q495 79 505 71T516 46Q516 25 504 13T469 0H101Z" />
<glyph unicode="3" glyph-name="three" horiz-adv-x="600" d="M277 -9Q223 -9 166 4T59 54Q45 63 41 75T40 100T52 121T73 131T99 124Q142 92 186 82T277 71Q321 71 355 87T409 135T430 209Q430 259 396 288T299 318H237Q217 318 206 327T194 352Q194 373 207
384T242 396H305Q349 396 385 412T443 458T464 531Q464 578 431 606T343 634Q302 634 259 621T176 579Q162 570 150 571T129 580T117 599T119 622T138 645Q185 680 242 697T353 714Q418 714 463 691T531 629T555 542Q556 494 535 455T476 390T389 354V365Q454 352
487 308T521 205Q521 144 490 95T404 19T277 -9Z" />
<glyph unicode="4" glyph-name="four" horiz-adv-x="600" d="M379 -7Q356 -7 346 6T339 42L356 147H85Q61 147 49 158T36 186Q36 199 43 212T64 241L438 682Q450 697 462 703T491 709Q511 709 521 696T528 657L460 226H528Q547 226 556 218T566 194Q566 173 555
160T519 147H449L431 37Q428 16 415 5T379 -7ZM368 226L427 596H451L117 201L120 226H368Z" />
<glyph unicode="5" glyph-name="five" horiz-adv-x="600" d="M286 -9Q236 -9 182 5T81 55Q67 66 64 78T63 103T75 123T96 132T121 124Q163 93 201 82T286 71Q334 71 372 92T433 151T456 235Q456 293 422 328T328 364Q287 364 252 349T185 301Q175 291 165 286T140
280Q123 280 113 290T106 323L161 665Q165 685 177 695T209 705H540Q561 705 572 697T583 672Q583 651 570 639T535 626H246L203 359H177Q209 399 257 421T356 443Q410 443 453 420T521 353T547 242Q547 166 512 110T417 22T286 -9Z" />
<glyph unicode="6" glyph-name="six" horiz-adv-x="600" d="M307 -9Q235 -9 183 23T102 114T73 253Q73 352 94 436T157 582T260 679T401 714Q450 714 498 696T583 642Q595 632 598 620T597 595T583 576T562 569T536 579Q508 606 471 620T394 634Q327 634 277 594T198
481T161 305L159 275H149Q157 328 188 366T263 424T355 444Q412 444 455 418T523 346T548 245Q548 173 517 116T432 25T307 -9ZM303 68Q350 68 385 90T440 152T460 238Q460 277 443 305T397 350T329 367Q283 367 248 345T193 284T173 197Q173 159 189 130T236 85T303
68Z" />
<glyph unicode="7" glyph-name="seven" horiz-adv-x="600" d="M137 -7Q119 -7 109 2T98 27T109 61L514 664L513 626H168Q147 626 135 635T123 661Q123 682 135 693T170 705H558Q584 705 595 696T606 670Q606 654 599 641T580 611L190 25Q179 8 166 1T137 -7Z" />
<glyph unicode="8" glyph-name="eight" horiz-adv-x="600" d="M271 -9Q201 -9 149 12T67 72T37 164Q37 219 61 264T129 337T226 368L223 354Q167 367 137 407T106 507Q106 574 140 620T232 690T365 714Q430 714 479 693T555 635T583 545Q583 496 561 454T500 385T412
351L414 366Q474 357 511 316T549 209Q549 138 513 90T415 16T271 -9ZM275 66Q361 66 410 103T460 214Q460 267 420 293T312 319Q227 319 176 283T125 174Q125 120 166 93T275 66ZM325 395Q376 395 413 412T472 460T494 535Q494 585 459 611T362 638Q283 638 239
603T194 500Q194 449 229 422T325 395Z" />
<glyph unicode="9" glyph-name="nine" horiz-adv-x="600" d="M239 -9Q190 -9 140 9T51 63Q39 73 37 85T38 109T51 128T72 136T98 126Q128 99 165 85T244 71Q309 71 358 111T437 224T473 399L476 430H486Q478 378 447 340T371 281T279 261Q223 261 180 287T112
359T87 460Q87 533 118 590T203 680T327 714Q400 714 452 683T533 592T562 452Q562 355 542 272T480 125T379 27T239 -9ZM305 338Q353 338 388 360T442 422T462 508Q462 547 445 576T399 621T331 638Q285 638 250 615T195 554T175 467Q175 429 192 400T238 355T305
338Z" />
<glyph unicode=":" glyph-name="colon" horiz-adv-x="233" d="M88 -4Q62 -4 45 13T28 56Q28 82 45 98T88 114Q116 114 131 98T147 56Q147 30 132 13T88 -4ZM148 373Q121 373 105 389T88 432Q88 458 104 474T148 491Q175 491 191 475T207 432Q207 406 191 390T148 373Z" />
<glyph unicode=";" glyph-name="semicolon" horiz-adv-x="233" d="M77 -100Q65 -111 53 -111T34 -105T26 -86T38 -63Q60 -41 70 -23T84 20L91 -4Q63 -4 46 12T28 56Q28 82 44 98T87 114Q114 114 128 97T143 49Q143 21 136 -5T114 -54T77 -100ZM148 373Q121 373
105 389T88 432Q88 458 104 474T148 491Q175 491 191 475T207 432Q207 406 191 390T148 373Z" />
<glyph unicode="&lt;" glyph-name="less" horiz-adv-x="600" d="M477 51L96 233Q55 252 55 281Q55 300 66 313T97 334L543 521Q557 526 567 523T584 512T591 492T587 472T568 456L93 260L100 305L505 113Q519 107 523 97T527 77T518 58T501 47T477 51Z" />
<glyph unicode="=" glyph-name="equal" horiz-adv-x="600" d="M108 353Q90 353 81 360T71 381Q71 399 81 410T111 421H537Q555 421 564 414T574 393Q574 374 564 364T533 353H108ZM76 154Q59 154 50 161T40 182Q40 200 50 210T80 221H506Q524 221 533 214T542
193Q542 175 532 165T502 154H76Z" />
<glyph unicode="&gt;" glyph-name="greater" horiz-adv-x="600" d="M71 54Q57 49 47 52T30 63T23 82T27 102T46 118L521 314L513 268L108 461Q95 467 90 477T86 498T94 517T112 528T136 524L518 341Q558 322 558 293Q558 274 547 261T517 240L71 54Z" />
<glyph unicode="?" glyph-name="question" horiz-adv-x="447" d="M206 186Q189 186 182 196T178 225Q183 258 193 287T225 345T287 409Q320 438 340 460T370 504T380 551Q380 587 357 610T283 634Q240 634 203 620T130 582Q114 572 101 572T80 581T69 600T72 624T91
647Q134 680 189 697T298 714Q354 714 393 694T452 639T473 564Q473 525 457 491T412 426T347 367Q310 338 288 313T255 263T237 214Q234 201 227 194T206 186ZM180 -4Q154 -4 138 13T121 56Q121 82 137 98T180 114Q208 114 223 98T239 56Q239 30 224 13T180 -4Z"
/>
<glyph unicode="@" glyph-name="at" horiz-adv-x="947" d="M496 -164Q399 -164 321 -134T187 -46T101 92T70 272Q70 371 101 452T191 592T331 682T510 714Q626 714 713 668T849 538T898 344Q898 257 874 193T807 94T706 59Q647 59 616 93T587 187L608 185Q583
123 538 91T440 59Q362 59 319 108T276 242Q276 315 304 372T381 463T492 496Q546 496 581 469T626 393H613L624 456Q631 491 665 491Q683 491 691 481T696 451L658 232Q655 218 654 206T653 183Q653 150 667 134T711 118Q748 118 776 146T820 225T836 344Q836
438 796 507T682 614T509 653Q398 653 315 606T185 473T138 272Q138 155 182 71T306 -57T496 -102Q567 -102 626 -83T727 -28Q742 -17 754 -19T773 -31T778 -54T762 -79Q714 -120 646 -142T496 -164ZM451 122Q494 122 528 148T581 220T600 324Q600 379 576 406T502
433Q459 433 425 409T372 341T352 242Q352 184 378 153T451 122Z" />
<glyph unicode="A" glyph-name="A" horiz-adv-x="733" d="M43 -7Q26 -7 15 1T2 22T8 52L386 680Q397 697 409 704T440 712Q459 712 471 703T489 675L664 54Q670 33 667 20T653 0T628 -7Q608 -7 597 3T580 35L538 196L571 176H148L191 194L90 22Q82 7 70 0T43 -7ZM428
600L215 236L193 252H551L527 235L430 600H428Z" />
<glyph unicode="B" glyph-name="B" horiz-adv-x="679" d="M101 0Q76 0 64 14T55 54L151 659Q154 682 168 693T205 705H431Q505 705 553 685T624 627T647 539Q647 462 599 412T470 351V366Q536 355 574 313T612 209Q612 106 547 53T361 0H101ZM148 73H359Q440 73
480 109T520 212Q520 266 485 293T383 320H187L148 73ZM199 394H393Q469 394 512 429T556 530Q556 580 522 606T418 632H237L199 394Z" />
<glyph unicode="C" glyph-name="C" horiz-adv-x="675" d="M385 -9Q294 -9 224 25T115 130T76 308Q76 394 101 468T173 597T289 683T444 714Q505 714 559 696T654 645Q667 635 670 622T669 596T656 574T635 564T609 573Q570 604 529 617T440 630Q357 630 298 589T207
475T175 310Q175 226 200 174T275 99T393 75Q437 75 476 87T553 128Q568 138 580 137T602 128T614 107T613 82T595 59Q549 24 495 8T385 -9Z" />
<glyph unicode="D" glyph-name="D" horiz-adv-x="747" d="M101 0Q76 0 64 14T55 54L151 659Q154 682 168 693T205 705H369Q531 705 619 628T707 409Q707 324 683 250T610 120T485 32T307 0H101ZM151 79H309Q390 79 447 104T540 175T593 280T610 408Q610 514 550
570T369 626H238L151 79Z" />
<glyph unicode="E" glyph-name="E" horiz-adv-x="586" d="M102 0Q75 0 63 14T55 54L151 659Q154 682 168 693T205 705H570Q590 705 600 698T611 675Q611 652 598 641T566 629H236L199 396H500Q520 396 530 389T540 366Q540 343 528 332T496 320H187L148 76H470Q489
76 499 69T510 46Q510 23 498 12T466 0H102Z" />
<glyph unicode="F" glyph-name="F" horiz-adv-x="551" d="M97 -7Q72 -7 61 7T54 47L151 659Q154 682 168 693T205 705H557Q576 705 587 697T598 674Q598 653 586 641T552 629H240L202 393H486Q506 393 516 385T527 362Q527 341 516 329T482 317H190L146 39Q139 -7 97 -7Z" />
<glyph unicode="G" glyph-name="G" horiz-adv-x="729" d="M392 -9Q295 -9 224 26T114 129T75 297Q75 390 100 466T174 598T292 684T449 714Q512 714 567 697T661 648Q676 638 680 624T681 597T668 576T646 566T618 575Q582 605 539 618T444 631Q359 631 299 590T205
474T172 300Q172 184 231 129T404 73Q451 73 491 81T568 103L541 57L581 298H444Q426 298 415 306T404 329Q404 349 416 359T449 370H625Q646 370 657 358T664 324L623 68Q621 50 613 40T589 23Q550 8 497 0T392 -9Z" />
<glyph unicode="H" glyph-name="H" horiz-adv-x="764" d="M93 -7Q70 -7 60 7T54 48L152 665Q155 689 168 700T204 712Q227 712 237 698T243 657L202 397H610L653 665Q657 689 669 700T705 712Q728 712 738 698T744 657L647 40Q643 17 631 5T595 -7Q571 -7 561
7T556 48L598 318H189L145 40Q142 17 129 5T93 -7Z" />
<glyph unicode="I" glyph-name="I" horiz-adv-x="262" d="M94 -7Q70 -7 60 7T54 48L152 665Q155 689 168 700T204 712Q227 712 237 698T243 657L145 40Q142 17 130 5T94 -7Z" />
<glyph unicode="J" glyph-name="J" horiz-adv-x="331" d="M-1 -7Q-23 -8 -35 2T-47 31Q-46 50 -37 60T-8 71L24 74Q76 78 106 108T146 199L221 669Q224 691 236 701T271 712Q294 712 305 699T312 661L237 188Q227 129 204 88T137 24T29 -4L-1 -7Z" />
<glyph unicode="K" glyph-name="K" horiz-adv-x="634" d="M94 -7Q71 -7 60 7T54 47L152 666Q156 690 169 701T204 712Q226 712 236 698T243 658L200 386H202L567 690Q581 702 590 707T614 712Q633 712 643 701T654 675T638 647L265 336V383L564 57Q577 44 576
29T563 4T534 -7Q517 -7 507 0T482 23L194 333H192L146 38Q142 16 130 5T94 -7Z" />
<glyph unicode="L" glyph-name="L" horiz-adv-x="548" d="M98 0Q73 0 62 13T54 52L153 669Q156 691 168 701T203 712Q226 712 237 699T244 661L152 80H463Q484 80 495 72T506 48Q506 25 493 13T458 0H98Z" />
<glyph unicode="M" glyph-name="M" horiz-adv-x="859" d="M94 -3Q72 -3 63 9T56 44L155 672Q159 693 170 702T201 712Q219 712 229 704T246 677L430 178H401L751 685Q761 699 772 705T802 712Q822 712 832 700T838 665L739 37Q736 18 725 8T693 -3Q673 -3 663
9T655 44L740 579H764L449 123Q441 111 432 106T410 101Q395 101 387 108T372 130L203 577H224L139 37Q136 18 125 8T94 -3Z" />
<glyph unicode="N" glyph-name="N" horiz-adv-x="741" d="M91 -7Q70 -7 60 6T53 45L153 672Q157 693 168 702T197 712Q215 712 224 705T242 682L572 115H550L637 669Q641 691 653 701T687 712Q708 712 717 699T722 661L623 34Q620 13 610 3T582 -7Q564 -7 554
0T533 24L204 590H226L138 36Q135 14 124 4T91 -7Z" />
<glyph unicode="O" glyph-name="O" horiz-adv-x="771" d="M371 -9Q281 -9 215 26T112 129T75 295Q75 384 99 460T169 594T282 682T435 714Q525 714 591 679T694 576T731 411Q731 321 707 245T637 111T524 23T371 -9ZM373 73Q458 73 515 117T603 237T634 410Q634
522 581 577T432 632Q348 632 291 589T203 469T172 296Q172 183 226 128T373 73Z" />
<glyph unicode="P" glyph-name="P" horiz-adv-x="637" d="M94 -7Q72 -7 62 7T54 47L151 660Q155 683 168 694T204 705H417Q527 705 586 657T646 514Q646 405 578 342T379 278H183L145 39Q142 16 130 5T94 -7ZM195 353H385Q468 353 511 392T555 508Q555 571 518
600T408 629H239L195 353Z" />
<glyph unicode="Q" glyph-name="Q" horiz-adv-x="771" d="M592 -135Q601 -153 598 -166T584 -188T560 -197T534 -192T513 -169L467 -68Q454 -38 428 -24T359 -9L438 22Q480 21 507 5T555 -55L592 -135ZM371 -9Q281 -9 215 26T112 129T75 295Q75 384 99 460T169
594T282 682T435 714Q525 714 591 679T694 576T731 411Q731 321 707 245T637 111T524 23T371 -9ZM373 73Q458 73 515 117T603 237T634 410Q634 522 581 577T432 632Q348 632 291 589T203 469T172 296Q172 183 226 128T373 73Z" />
<glyph unicode="R" glyph-name="R" horiz-adv-x="673" d="M93 -7Q71 -7 61 7T54 48L151 659Q155 682 168 693T205 705H415Q530 705 588 654T646 514Q646 441 612 393T520 320T387 298V311H405Q449 311 477 286T524 214L585 54Q593 35 591 21T579 0T549 -7Q530
-7 519 2T500 33L429 218Q414 260 389 277T315 294H186L146 39Q142 16 129 5T93 -7ZM197 366H391Q468 366 511 403T555 508Q555 568 519 598T404 629H239L197 366Z" />
<glyph unicode="S" glyph-name="S" horiz-adv-x="618" d="M298 -9Q253 -9 210 -3T127 19T53 57Q39 66 35 78T32 103T43 125T65 135T94 128Q142 96 195 84T306 71Q384 71 431 103T478 190Q478 229 451 256T353 299L248 324Q178 341 136 383T94 501Q94 550 114 589T172
657T257 699T361 714Q417 714 478 698T585 644Q598 635 602 622T603 597T592 577T570 569T539 579Q502 608 455 621T359 634Q309 634 270 618T209 574T187 507Q187 459 211 436T285 401L389 375Q483 354 527 310T571 201Q571 149 550 110T491 45T404 5T298 -9Z"
/>
<glyph unicode="T" glyph-name="T" horiz-adv-x="607" d="M265 -7Q243 -7 233 7T226 47L318 626H106Q86 626 75 635T63 659Q63 681 76 693T111 705H635Q655 705 666 697T677 673Q677 651 665 639T630 626H411L318 39Q314 17 302 5T265 -7Z" />
<glyph unicode="U" glyph-name="U" horiz-adv-x="731" d="M336 -9Q270 -9 219 10T134 67T88 164T89 299L147 668Q151 691 164 701T198 712Q221 712 231 699T238 660L180 291Q163 183 204 128T342 73Q437 73 491 121T562 274L625 668Q629 691 641 701T676 712Q698
712 708 699T716 660L654 272Q640 179 601 117T497 23T336 -9Z" />
<glyph unicode="V" glyph-name="V" horiz-adv-x="694" d="M309 -7Q288 -7 276 4T257 36L86 648Q82 665 86 678T101 698T127 705Q145 705 156 696T174 664L333 77H298L648 672Q658 689 670 697T700 705Q719 705 729 697T741 674T734 645L365 28Q355 10 342 2T309 -7Z" />
<glyph unicode="W" glyph-name="W" horiz-adv-x="1104" d="M275 -7Q256 -7 245 4T229 38L111 656Q106 682 118 697T154 712Q172 712 183 702T199 669L305 83H269L570 676Q579 695 591 703T622 712Q639 712 649 701T665 666L772 83H740L1039 678Q1048 695 1059
703T1088 712Q1116 712 1125 694T1121 651L805 29Q795 10 782 2T749 -7Q729 -7 718 4T702 38L597 594H618L331 29Q321 10 309 2T275 -7Z" />
<glyph unicode="X" glyph-name="X" horiz-adv-x="655" d="M48 -7Q31 -7 20 3T9 30T22 61L305 379V342L128 646Q118 663 119 678T132 702T162 712Q180 712 189 705T210 677L363 409H341L579 684Q592 699 604 705T631 712Q649 712 660 702T672 677T659 645L387 338V381L575
60Q586 43 584 28T571 3T540 -7Q523 -7 514 1T492 28L327 314H355L100 21Q87 6 76 0T48 -7Z" />
<glyph unicode="Y" glyph-name="Y" horiz-adv-x="601" d="M261 -7Q238 -7 229 7T223 47L273 365L283 303L91 645Q81 663 82 678T95 702T125 712Q142 712 152 705T174 677L330 397H307L560 684Q574 700 585 706T612 712Q629 712 640 702T651 677T637 645L335 303L366
365L314 39Q307 -7 261 -7Z" />
<glyph unicode="Z" glyph-name="Z" horiz-adv-x="593" d="M55 0Q39 0 29 7T16 28T18 57T38 90L529 659L530 626H149Q129 626 119 634T108 658Q108 682 121 693T155 705H581Q599 705 610 698T625 677T622 649T602 616L110 46L108 79H504Q524 79 535 71T547 48Q547
24 534 12T499 0H55Z" />
<glyph unicode="[" glyph-name="bracketleft" horiz-adv-x="324" d="M97 -180Q74 -180 61 -164T51 -125L176 668Q179 684 190 694T219 705H346Q368 705 379 697T390 672Q390 652 379 643T348 634H261L144 -109H228Q247 -109 254 -117T262 -139Q262 -157 251 -168T219
-180H97Z" />
<glyph unicode="\" glyph-name="backslash" horiz-adv-x="290" d="M185 -31L64 708Q62 723 67 733T83 747T104 752T124 743T135 720L257 -20Q260 -35 255 -45T239 -60T217 -64T197 -54T185 -31Z" />
<glyph unicode="]" glyph-name="bracketright" horiz-adv-x="324" d="M-16 -180Q-37 -180 -48 -172T-60 -147Q-60 -127 -49 -118T-18 -109H69L186 634H102Q83 634 76 642T69 664Q69 682 79 693T111 705H233Q256 705 269 689T280 650L154 -143Q152 -159 140 -169T112
-180H-16Z" />
<glyph unicode="^" glyph-name="asciicircum" horiz-adv-x="600" d="M80 133Q58 133 52 147T57 182L312 605Q322 622 333 628T362 635Q395 635 405 597L525 180Q532 158 523 146T494 133Q477 133 470 142T459 165L336 594H381L120 159Q114 147 105 140T80 133Z" />
<glyph unicode="_" glyph-name="underscore" horiz-adv-x="500" d="M3 -58Q-14 -58 -22 -52T-31 -33Q-31 -16 -20 -8T5 0H411Q428 0 436 -7T444 -25Q444 -41 434 -49T408 -58H3Z" />
<glyph unicode="`" glyph-name="grave" horiz-adv-x="394" d="M290 559L187 707Q176 722 177 735T187 756T208 766T234 762T255 739L340 587Q348 574 345 564T332 548T311 544T290 559Z" />
<glyph unicode="a" glyph-name="a" horiz-adv-x="533" d="M198 -9Q155 -9 119 10T60 62T37 138Q37 190 66 221T156 268T312 284H393L384 226H322Q249 226 207 219T147 193T128 144Q128 102 156 80T222 57Q257 57 287 73T339 118T367 190L386 311Q395 366 371 395T285
425Q250 425 217 418T151 392Q137 385 125 387T106 396T97 415T102 437T126 457Q165 477 209 486T296 496Q367 496 408 470T465 397T470 287L430 38Q428 16 415 5T381 -7Q361 -7 352 6T345 44L357 121L365 109Q352 69 326 43T266 4T198 -9Z" />
<glyph unicode="b" glyph-name="b" horiz-adv-x="587" d="M300 -9Q242 -9 197 20T135 107L143 122L130 39Q128 16 116 5T80 -7Q59 -7 49 7T42 46L140 666Q144 689 157 700T193 712Q214 712 224 698T230 659L187 386H176Q203 438 249 467T358 496Q414 496 456 471T521
399T545 287Q545 206 516 139T433 32T300 -9ZM288 63Q341 63 377 92T433 172T453 284Q453 352 420 388T327 424Q274 424 237 395T181 315T162 203Q162 135 195 99T288 63Z" />
<glyph unicode="c" glyph-name="c" horiz-adv-x="465" d="M261 -9Q187 -9 139 18T67 95T43 208Q43 262 58 313T106 406T188 471T307 496Q344 496 379 486T442 460Q457 450 463 439T468 415T459 395T441 385T417 391Q392 408 367 415T311 423Q264 423 231 405T177
355T146 287T136 209Q136 143 168 104T272 64Q295 64 320 71T371 94Q382 101 392 99T410 90T419 72T418 50T400 31Q373 12 335 2T261 -9Z" />
<glyph unicode="d" glyph-name="d" horiz-adv-x="587" d="M229 -9Q173 -9 131 16T66 89T42 200Q42 281 71 348T154 456T287 496Q345 496 390 467T452 380H445L490 669Q494 692 507 702T542 712Q564 712 573 699T580 660L481 39Q478 17 465 5T429 -7Q408 -7 399
7T394 47L405 118L410 101Q384 50 338 21T229 -9ZM260 63Q313 63 350 93T406 173T425 284Q425 352 392 388T299 424Q246 424 210 395T154 315T134 203Q134 135 167 99T260 63Z" />
<glyph unicode="e" glyph-name="e" horiz-adv-x="534" d="M272 -9Q202 -9 151 17T71 92T43 207Q43 287 75 352T166 457T305 496Q363 496 402 476T464 421T494 343T496 253Q494 235 487 229T465 223H114L122 281H440L422 267Q429 313 419 349T381 408T304 430Q252
430 217 407T163 347T137 270L132 245Q119 162 158 113T278 63Q313 63 346 71T409 98Q423 108 434 107T453 99T462 82T459 60T441 39Q407 15 361 3T272 -9Z" />
<glyph unicode="f" glyph-name="f" horiz-adv-x="340" d="M107 -7Q86 -7 76 7T70 46L129 417H74Q56 417 47 424T37 445Q37 465 49 476T81 487H151L138 475L145 521Q158 604 209 651T355 706L385 708Q401 709 409 703T421 686T422 665T412 647T392 638L363 636Q306
632 276 604T236 520L229 478L222 487H329Q347 487 356 480T365 460Q365 439 354 428T322 417H220L160 38Q152 -7 107 -7Z" />
<glyph unicode="g" glyph-name="g" horiz-adv-x="590" d="M250 -189Q191 -189 140 -174T49 -133Q37 -125 33 -114T31 -93T42 -74T61 -65T86 -71Q121 -92 157 -104T238 -117Q302 -117 341 -86T391 11L409 122L417 121Q393 69 346 41T237 12Q179 12 135 36T67 105T43
211Q43 267 59 318T108 410T185 473T289 496Q349 496 394 467T457 380L446 363L460 450Q463 473 476 483T511 494Q533 494 542 480T547 441L480 16Q464 -86 407 -137T250 -189ZM262 84Q317 84 354 113T410 190T429 294Q429 355 396 389T301 424Q248 424 211 395T154
319T135 215Q135 153 168 119T262 84Z" />
<glyph unicode="h" glyph-name="h" horiz-adv-x="572" d="M79 -7Q58 -7 49 7T42 47L140 666Q144 689 157 700T192 712Q214 712 224 699T230 659L186 379H175Q200 435 247 465T362 496Q416 496 452 475T504 408T509 294L469 39Q466 16 453 5T416 -7Q395 -7 385
7T378 46L418 293Q428 358 407 390T332 422Q262 422 221 379T168 263L132 39Q126 -7 79 -7Z" />
<glyph unicode="i" glyph-name="i" horiz-adv-x="237" d="M79 -7Q58 -7 48 7T42 46L106 449Q109 472 122 483T158 494Q179 494 189 480T195 441L131 38Q128 16 115 5T79 -7ZM176 600Q151 600 138 613T126 649Q129 677 146 691T193 706Q219 706 232 694T243 658Q241
630 224 615T176 600Z" />
<glyph unicode="j" glyph-name="j" horiz-adv-x="241" d="M-79 -191Q-94 -192 -103 -185T-115 -168T-116 -147T-105 -129T-83 -121Q-34 -119 -4 -94T36 -13L109 449Q113 472 126 483T161 494Q182 494 192 480T199 441L128 -7Q118 -69 93 -109T26 -169T-79 -191ZM178
600Q152 600 139 613T128 649Q130 677 147 691T195 706Q220 706 233 694T245 658Q242 630 225 615T178 600Z" />
<glyph unicode="k" glyph-name="k" horiz-adv-x="508" d="M79 -7Q58 -7 49 7T42 46L141 668Q144 691 157 701T193 712Q214 712 224 698T230 658L169 272H171L400 468Q415 481 426 487T454 494Q472 494 480 484T487 458T470 429L235 226L237 273L432 58Q444 44
444 29T433 3T405 -7Q386 -7 375 1T348 27L164 229H162L132 37Q125 -7 79 -7Z" />
<glyph unicode="l" glyph-name="l" horiz-adv-x="301" d="M189 -9Q114 -9 81 34T60 162L141 667Q144 690 157 701T193 712Q214 712 224 698T230 659L151 163Q143 112 159 90T214 67Q227 67 234 68T247 70Q255 70 260 65T265 44Q265 23 255 11T231 -4Q223 -7 211
-8T189 -9Z" />
<glyph unicode="m" glyph-name="m" horiz-adv-x="861" d="M81 -7Q60 -7 50 6T44 45L108 450Q112 472 125 483T159 494Q180 494 189 481T195 443L183 362L175 378Q202 436 247 466T348 496Q405 496 441 465T487 374L475 378Q500 434 546 465T656 496Q708 496 743
475T792 408T795 293L755 37Q752 16 739 5T704 -7Q681 -7 672 6T665 45L704 297Q714 360 695 391T627 422Q569 422 531 380T480 263L445 37Q442 16 429 5T392 -7Q371 -7 361 6T354 45L394 297Q404 360 385 391T317 422Q259 422 221 380T170 263L134 37Q128 -7 81
-7Z" />
<glyph unicode="n" glyph-name="n" horiz-adv-x="572" d="M80 -7Q59 -7 49 8T43 48L106 449Q110 472 123 483T158 494Q179 494 188 482T194 444L181 365L175 379Q200 435 247 465T362 496Q416 496 452 475T504 408T509 294L468 38Q466 16 453 5T416 -7Q395 -7
385 7T378 47L418 293Q428 358 407 390T332 422Q262 422 221 379T168 263L132 39Q126 -7 80 -7Z" />
<glyph unicode="o" glyph-name="o" horiz-adv-x="560" d="M258 -9Q191 -9 143 17T69 91T43 206Q43 269 61 322T115 414T197 474T302 496Q370 496 418 470T492 396T518 280Q518 218 499 165T446 73T364 13T258 -9ZM261 63Q314 63 350 92T406 172T426 284Q426 352
393 388T300 424Q247 424 210 395T154 315T135 203Q135 135 168 99T261 63Z" />
<glyph unicode="p" glyph-name="p" horiz-adv-x="587" d="M51 -187Q30 -187 20 -173T13 -134L106 448Q109 471 122 482T158 494Q179 494 188 480T194 441L182 369L177 387Q204 439 250 467T358 496Q414 496 456 471T521 399T545 287Q545 206 516 139T433 32T300
-9Q242 -9 197 20T135 107H143L103 -144Q99 -166 87 -176T51 -187ZM288 63Q341 63 377 92T433 172T453 284Q453 352 420 388T327 424Q274 424 237 395T181 315T162 203Q162 135 195 99T288 63Z" />
<glyph unicode="q" glyph-name="q" horiz-adv-x="587" d="M400 -187Q379 -187 369 -173T363 -134L400 101H410Q384 50 338 21T229 -9Q173 -9 131 16T66 89T42 200Q42 281 71 348T155 456T288 496Q345 496 390 467T452 380L444 365L458 450Q461 472 473 483T507
494Q529 494 539 480T545 441L453 -141Q449 -164 436 -175T400 -187ZM260 63Q313 63 350 93T406 173T425 284Q425 352 392 388T299 424Q246 424 210 395T154 315T134 203Q134 135 167 99T260 63Z" />
<glyph unicode="r" glyph-name="r" horiz-adv-x="365" d="M80 -7Q58 -7 48 6T42 45L106 450Q110 472 123 483T157 494Q178 494 188 481T194 443L183 371H172Q193 430 241 462T352 497Q376 498 384 491T392 466Q392 442 382 431T346 418L324 415Q247 408 214 369T169
265L133 37Q130 15 117 4T80 -7Z" />
<glyph unicode="s" glyph-name="s" horiz-adv-x="483" d="M224 -9Q176 -9 132 2T57 31Q43 39 38 50T33 72T42 91T60 100T86 94Q118 76 153 68T225 59Q277 59 306 79T336 136Q336 160 320 176T273 199L179 221Q128 232 99 264T70 342Q70 386 94 420T165 475T274
496Q313 496 354 485T423 453Q436 445 441 434T444 412T434 394T416 386T390 394Q365 411 334 419T270 428Q216 428 186 406T155 347Q155 324 168 308T212 285L306 263Q361 250 390 220T420 143Q420 71 366 31T224 -9Z" />
<glyph unicode="t" glyph-name="t" horiz-adv-x="358" d="M242 -9Q184 -9 146 13T93 76T87 170L126 417H68Q50 417 40 424T29 446Q29 466 42 476T76 487H137L155 599Q159 621 171 631T205 642Q228 642 238 629T244 591L228 487H343Q362 487 372 480T383 458Q383
440 371 429T339 417H217L179 179Q169 119 191 94T258 68Q279 68 290 71T311 75Q321 75 326 69T332 48Q332 24 325 14T302 0Q291 -4 274 -6T242 -9Z" />
<glyph unicode="u" glyph-name="u" horiz-adv-x="565" d="M208 -9Q156 -9 120 12T68 79T63 194L104 451Q108 474 120 484T154 494Q177 494 187 481T194 443L155 194Q145 129 165 97T238 65Q305 65 346 108T398 224L434 451Q437 474 449 484T483 494Q506 494 516
481T523 444L459 36Q452 -7 409 -7Q388 -7 378 5T371 41L384 125L392 109Q368 52 320 22T208 -9Z" />
<glyph unicode="v" glyph-name="v" horiz-adv-x="518" d="M222 -7Q200 -7 187 4T167 38L61 430Q56 449 59 463T74 485T103 494Q122 494 132 485T148 452L242 71H215L438 462Q449 480 460 487T488 494Q506 494 516 486T527 465T518 434L279 29Q268 10 255 2T222 -7Z" />
<glyph unicode="w" glyph-name="w" horiz-adv-x="844" d="M207 -7Q188 -7 175 4T156 38L72 429Q68 448 72 462T86 485T114 494Q132 494 141 485T155 453L229 72H203L408 464Q417 480 428 487T456 494Q473 494 484 485T499 456L575 72H553L753 460Q764 479 775
486T804 494Q821 494 830 486T841 465T834 437L617 29Q607 11 593 2T560 -7Q541 -7 527 4T508 38L429 416H468L265 30Q255 11 241 2T207 -7Z" />
<glyph unicode="x" glyph-name="x" horiz-adv-x="530" d="M50 -7Q31 -7 21 2T11 26T23 53L231 270L229 229L99 430Q88 448 90 462T102 485T128 494Q144 494 156 487T177 465L285 294H261L422 470Q434 482 444 488T471 494Q490 494 500 485T510 461T498 434L306
231L305 271L444 58Q456 40 454 25T440 2T414 -7Q400 -7 388 0T366 22L248 206L276 205L98 17Q86 5 76 -1T50 -7Z" />
<glyph unicode="y" glyph-name="y" horiz-adv-x="517" d="M120 -187Q102 -187 93 -179T83 -157T92 -127L186 29L180 -9L61 430Q56 449 59 463T73 486T102 494Q122 494 131 485T146 452L241 70H213L437 461Q448 478 458 486T487 494Q505 494 515 486T526 464T518
434L170 -154Q160 -171 149 -179T120 -187Z" />
<glyph unicode="z" glyph-name="z" horiz-adv-x="466" d="M58 0Q43 0 34 6T20 22T19 44T33 68L367 440L371 417H117Q99 417 89 425T79 446Q79 466 90 476T121 487H422Q437 487 447 481T460 464T459 441T443 415L110 45L106 70H374Q411 70 411 41Q411 22 400 11T369 0H58Z" />
<glyph unicode="{" glyph-name="braceleft" horiz-adv-x="361" d="M206 -180Q164 -180 138 -167T101 -130T95 -74L130 146Q138 192 123 207T71 226Q59 227 52 235T44 256Q44 274 53 286T78 299Q120 301 140 317T167 379L202 598Q211 652 240 678T319 705H386Q407
705 416 696T425 670Q425 654 414 644T386 634H340Q320 634 308 624T291 590L257 369Q252 333 234 309T194 273T150 261L149 265Q170 265 189 253T218 217T222 156L188 -65Q184 -88 193 -98T223 -109H262Q277 -109 286 -118T296 -141Q296 -161 287 -170T258 -180H206Z"
/>
<glyph unicode="|" glyph-name="bar" horiz-adv-x="270" d="M67 -187Q46 -187 37 -173T30 -134L157 667Q160 690 173 701T209 712Q230 712 240 699T246 659L119 -142Q113 -187 67 -187Z" />
<glyph unicode="}" glyph-name="braceright" horiz-adv-x="361" d="M-19 -180Q-40 -180 -49 -171T-58 -145Q-58 -128 -47 -119T-19 -109H27Q48 -109 60 -98T76 -65L110 156Q116 193 133 216T174 252T218 264V260Q198 260 179 272T150 309T145 369L179 590Q183
614 174 624T144 634H105Q91 634 81 643T71 666Q71 686 80 695T109 705H161Q204 705 230 693T266 656T272 599L237 379Q230 333 244 318T296 299Q309 298 316 290T323 269Q323 251 314 239T289 226Q248 225 228 208T200 146L165 -73Q156 -126 127 -153T49 -180H-19Z"
/>
<glyph unicode="~" glyph-name="asciitilde" horiz-adv-x="600" d="M419 215Q385 215 354 229T294 258Q268 273 245 283T199 294Q173 294 154 281T121 248Q112 236 100 235T78 239T65 256T71 283Q95 321 125 340T194 359Q229 359 261 345T322 316Q349 302 370
292T414 281Q442 281 460 294T493 326Q501 339 513 340T536 335T549 318T543 292Q518 253 488 234T419 215Z" />
<glyph unicode="&#xa0;" glyph-name="uni00A0" horiz-adv-x="261" />
<glyph unicode="&#xa1;" glyph-name="exclamdown" horiz-adv-x="233" d="M53 -187Q26 -187 13 -171T6 -125L92 276Q95 289 103 296T124 304Q139 304 145 296T150 269L110 -132Q108 -159 94 -173T53 -187ZM148 373Q121 373 105 389T88 432Q88 458 104 474T148 491Q175
491 191 475T207 432Q207 406 191 390T148 373Z" />
<glyph unicode="&#xa2;" glyph-name="cent" horiz-adv-x="600" d="M256 -122Q240 -122 230 -113T223 -81L239 18L251 1Q196 11 160 39T107 111T89 208Q89 259 103 307T146 395T221 460T330 491L308 463L327 581Q329 596 340 605T368 614Q383 614 394 604T401 573L384
467L372 492Q409 491 444 480T503 450Q515 442 519 431T521 410T510 393T491 384T465 391Q442 406 417 413T361 420Q312 420 278 402T223 353T192 285T182 209Q182 147 214 108T323 68Q346 68 372 75T422 98Q435 106 445 104T463 93T471 74T468 53T451 34Q415 11
371 2T294 -4L314 14L298 -89Q295 -105 284 -113T256 -122Z" />
<glyph unicode="&#xa3;" glyph-name="sterling" horiz-adv-x="600" d="M53 0Q30 0 19 10T8 35Q8 56 21 67T57 78H142L111 55L157 340L175 320H92Q73 320 65 328T56 349Q56 365 68 376T97 387H175L160 358L184 507Q195 576 224 622T302 691T424 714Q475 714 523
698T604 653Q616 642 619 630T619 606T605 588T584 581T560 590Q530 616 497 626T426 637Q362 637 324 605T277 511L254 365L244 387H399Q418 387 427 379T436 357Q436 341 424 331T394 320H247L208 78H485Q508 78 519 69T530 44Q530 25 516 13T480 0H53Z" />
<glyph unicode="&#xa4;" glyph-name="currency" horiz-adv-x="600" d="M51 -11Q41 -1 41 12T51 35L109 94Q86 126 73 164T60 245Q60 288 72 326T109 396L51 456Q41 466 41 478T51 501Q60 511 73 511T97 500L154 441Q184 466 222 479T301 493Q342 493 379 480T447
443L502 500Q512 511 526 511T549 502Q560 491 560 478T549 454L492 397Q516 365 528 327T541 245Q541 202 528 164T491 93L549 35Q559 24 559 12T549 -11Q540 -20 527 -20T504 -10L447 48Q417 24 380 11T301 -3Q260 -3 222 11T153 48L96 -10Q86 -20 74 -20T51
-11ZM300 74Q345 74 381 97T439 159T461 245Q461 293 440 331T382 393T300 416Q256 416 220 393T162 332T140 245Q140 198 161 159T219 97T300 74Z" />
<glyph unicode="&#xa5;" glyph-name="yen" horiz-adv-x="600" d="M260 -7Q238 -7 228 7T222 46L242 171H96Q77 171 67 180T57 203Q57 218 68 228T95 238H252L267 325H121Q101 325 92 333T82 356Q82 372 93 382T119 392H251L249 376L97 647Q88 665 90 679T104 703T133
712Q150 712 158 705T177 679L331 397H308L556 685Q568 700 578 706T602 712Q620 712 631 703T643 678T632 648L395 376L396 392H515Q535 392 544 384T554 360Q554 345 543 335T517 325H359L346 238H491Q511 238 520 230T530 207Q530 192 519 182T492 171H334L314
38Q306 -7 260 -7Z" />
<glyph unicode="&#xa6;" glyph-name="brokenbar" horiz-adv-x="270" d="M154 365Q133 365 124 379T117 418L157 667Q161 690 174 701T209 712Q231 712 241 699T247 659L207 410Q200 365 154 365ZM67 -187Q46 -187 37 -173T30 -134L70 115Q74 138 87 149T122 161Q144
161 154 147T160 107L120 -142Q114 -187 67 -187Z" />
<glyph unicode="&#xa7;" glyph-name="section" horiz-adv-x="551" d="M208 -189Q151 -189 104 -177T21 -140Q8 -132 3 -121T0 -99T11 -81T31 -73T56 -80Q87 -101 124 -111T205 -121Q247 -121 278 -106T325 -65T342 -6Q342 32 326 53T270 98L167 159Q130 181 105
206T67 258T54 316Q54 362 77 401T144 467L140 456Q134 471 130 487T126 525Q126 582 156 624T238 690T349 714Q398 714 440 703T522 666Q536 657 540 646T543 624T532 607T511 600T485 608Q458 626 423 636T352 646Q310 646 279 631T232 590T215 530Q215 493 231
470T287 424L387 365Q426 343 451 318T490 266T503 208Q503 163 480 124T412 56L415 72Q423 57 427 40T431 2Q431 -57 401 -100T320 -166T208 -189ZM136 331Q136 299 157 273T220 222L311 169Q339 153 357 137T388 103L376 104Q398 124 409 148T420 194Q420 226
399 252T334 303L246 353Q220 369 201 385T170 421L182 423Q159 402 148 378T136 331Z" />
<glyph unicode="&#xa8;" glyph-name="dieresis" horiz-adv-x="478" d="M385 603Q365 603 354 613T342 642Q342 670 357 686T400 702Q421 702 432 692T444 663Q444 635 429 619T385 603ZM208 603Q187 603 176 613T164 642Q164 670 179 686T222 702Q243 702 254
692T266 663Q266 635 251 619T208 603Z" />
<glyph unicode="&#xa9;" glyph-name="copyright" horiz-adv-x="815" d="M425 -9Q348 -9 282 18T167 95T91 210T63 353Q63 430 90 496T167 610T282 686T425 714Q502 714 568 687T682 611T758 496T786 353Q786 276 759 210T683 95T568 19T425 -9ZM425 37Q492 37
549 61T648 128T714 228T738 353Q738 420 715 477T649 577T549 644T425 668Q358 668 301 644T201 578T135 478T111 353Q111 286 134 229T200 128T300 61T425 37ZM439 137Q342 137 286 196T229 355Q229 454 285 511T439 568Q472 568 505 559T565 529Q576 522 579
513T580 494T572 478T555 470T533 476Q510 491 488 497T444 503Q381 503 345 464T309 354Q309 284 345 243T444 202Q466 202 488 208T535 231Q550 240 561 236T577 221T581 198T567 177Q540 158 506 148T439 137Z" />
<glyph unicode="&#xaa;" glyph-name="ordfeminine" horiz-adv-x="330" d="M167 410Q125 410 97 436T68 500Q68 546 110 566T239 587H302L296 550H245Q182 550 156 539T130 504Q130 482 145 469T184 455Q206 455 226 465T260 493T278 533L289 602Q295 634 277 649T224
665Q203 665 183 661T145 647Q132 642 123 646T111 658T111 677T128 692Q149 703 175 708T229 714Q272 714 300 698T341 654T348 586L325 438Q320 410 292 410Q278 410 271 419T266 441L271 470H268Q252 441 227 426T167 410Z" />
<glyph unicode="&#xab;" glyph-name="guillemotleft" horiz-adv-x="453" d="M167 90Q150 84 136 89T114 112L62 235Q57 249 58 265T71 296L175 432Q184 443 197 446T223 443Q237 435 239 420T226 383L142 262L184 138Q190 121 186 109T167 90ZM354 90Q337 84 323
89T301 112L249 235Q244 249 245 265T258 296L362 432Q371 443 384 446T410 443Q424 435 426 420T413 383L329 262L371 138Q377 121 373 109T354 90Z" />
<glyph unicode="&#xac;" glyph-name="logicalnot" horiz-adv-x="600" d="M493 140Q476 140 468 151T463 182L492 355H108Q91 355 82 362T72 382Q72 401 82 412T112 423H516Q541 423 554 408T563 367L533 173Q528 140 493 140Z" />
<glyph unicode="&#xad;" glyph-name="uni00AD" horiz-adv-x="427" d="M108 229Q87 229 78 237T68 259Q68 278 78 290T109 303H328Q348 303 358 296T368 274Q368 255 357 242T325 229H108Z" />
<glyph unicode="&#xae;" glyph-name="registered" horiz-adv-x="815" d="M425 -9Q348 -9 282 18T167 95T91 210T63 353Q63 430 90 496T167 610T282 686T425 714Q502 714 568 687T682 611T758 496T786 353Q786 276 759 210T683 95T568 19T425 -9ZM425 37Q492 37
549 61T648 128T714 228T738 353Q738 420 715 477T649 577T549 644T425 668Q358 668 301 644T201 578T135 478T111 353Q111 286 134 229T200 128T300 61T425 37ZM315 136Q278 136 278 175V520Q278 541 289 552T322 564H453Q521 564 557 531T594 441Q594 384 558
354T455 323L469 333Q500 333 520 320T553 269L585 183Q593 160 582 148T551 136Q538 136 530 144T516 165L478 270Q469 295 452 303T409 312H338L352 322V175Q352 136 315 136ZM351 369H443Q483 369 503 385T524 438Q524 473 504 490T443 507H351V369Z" />
<glyph unicode="&#xaf;" glyph-name="overscore" horiz-adv-x="515" d="M196 623Q164 623 164 648Q164 664 174 673T200 682H448Q480 682 480 657Q480 642 471 633T444 623H196Z" />
<glyph unicode="&#xb0;" glyph-name="degree" horiz-adv-x="373" d="M237 412Q194 412 160 431T107 485T87 561Q87 603 106 637T160 690T238 710Q280 710 313 691T367 638T387 561Q387 519 368 485T314 432T237 412ZM237 470Q276 470 300 495T324 561Q324 601
300 626T237 652Q199 652 175 627T150 561Q150 521 174 496T237 470Z" />
<glyph unicode="&#xb1;" glyph-name="plusminus" horiz-adv-x="600" d="M283 123Q266 123 258 134T253 165L273 296H99Q82 296 73 303T63 324Q63 342 73 353T104 364H285L306 501Q308 518 317 527T345 537Q363 537 371 526T375 495L355 364H529Q547 364 556 357T565
336Q565 317 555 307T525 296H344L322 158Q320 141 311 132T283 123ZM52 0Q35 0 26 7T16 28Q16 46 26 57T56 68H482Q500 68 509 61T519 40Q519 21 508 11T478 0H52Z" />
<glyph unicode="&#xb2;" glyph-name="uni00B2" horiz-adv-x="380" d="M96 282Q78 282 69 290T60 312Q60 324 65 332T81 349L228 482Q259 510 278 537T298 593Q299 618 282 631T235 645Q212 645 191 638T148 619Q134 612 124 616T108 631T106 654T125 675Q153 692
186 700T252 709Q293 709 321 695T364 657T379 603Q378 556 351 520T275 441L143 324L142 347H320Q355 347 355 319Q355 302 345 292T316 282H96Z" />
<glyph unicode="&#xb3;" glyph-name="uni00B3" horiz-adv-x="380" d="M202 278Q167 278 131 287T67 315Q54 323 52 335T56 358T74 372T101 367Q122 352 147 347T202 342Q236 342 259 359T284 410Q285 436 267 449T213 463H168Q152 463 142 470T132 490Q132 506
142 517T172 528H219Q256 528 281 545T306 594Q307 618 289 631T239 645Q210 645 187 637T146 618Q131 610 121 614T106 629T104 652T122 672Q147 688 179 698T251 709Q312 709 347 681T381 607Q381 565 352 534T276 495L277 502Q316 494 337 468T358 406Q358 369
337 340T281 294T202 278Z" />
<glyph unicode="&#xb4;" glyph-name="acute" horiz-adv-x="359" d="M202 556Q193 545 182 544T163 548T152 564T158 587L263 746Q273 761 285 765T309 766T327 753T335 732T325 707L202 556Z" />
<glyph unicode="&#xb5;" glyph-name="uni00B5" horiz-adv-x="600" d="M67 -187Q46 -187 36 -174T30 -135L123 451Q127 474 140 484T174 494Q196 494 206 481T213 442L174 194Q163 129 184 97T257 65Q324 65 365 109T417 224L452 450Q456 473 469 483T504 494Q526
494 536 481T542 442L478 37Q471 -7 428 -7Q408 -7 397 4T389 34L401 109H407Q387 54 347 23T250 -9Q210 -9 181 7T138 53L143 55L118 -142Q115 -165 103 -176T67 -187Z" />
<glyph unicode="&#xb6;" glyph-name="paragraph" horiz-adv-x="596" d="M211 -187Q195 -187 188 -176T183 -146L254 304Q200 304 162 327T102 389T81 477Q81 545 110 596T190 676T310 705H535Q559 705 570 693T577 656L449 -152Q443 -187 408 -187Q391 -187 384
-176T379 -146L503 637H378L253 -152Q247 -187 211 -187Z" />
<glyph unicode="&#xb7;" glyph-name="middot" horiz-adv-x="233" d="M121 208Q95 208 78 224T61 267Q61 293 78 309T121 325Q149 325 164 309T180 267Q180 241 165 225T121 208Z" />
<glyph unicode="&#xb8;" glyph-name="cedilla" horiz-adv-x="402" d="M126 -193Q108 -193 91 -191T57 -183Q44 -179 40 -169T38 -150T50 -135T72 -134Q83 -138 97 -140T126 -143Q154 -143 170 -134T187 -105Q187 -94 179 -88T152 -81Q145 -81 136 -82T118 -85Q111
-86 105 -86T96 -83Q92 -79 92 -74T93 -61L119 20H174L149 -56L124 -48Q136 -45 148 -43T170 -41Q205 -41 226 -57T247 -104Q247 -144 213 -168T126 -193Z" />
<glyph unicode="&#xb9;" glyph-name="uni00B9" horiz-adv-x="380" d="M124 282Q90 282 90 310Q90 326 100 336T128 347H195L241 640L288 641L186 584Q169 574 156 578T137 595T135 620T156 643L249 694Q259 699 269 703T292 708Q308 708 314 701T320 685T320 669L269
347H311Q346 347 346 319Q346 303 336 293T308 282H124Z" />
<glyph unicode="&#xba;" glyph-name="ordmasculine" horiz-adv-x="342" d="M215 411Q174 411 142 428T92 477T73 551Q73 601 94 638T150 694T227 714Q269 714 301 697T351 649T369 574Q369 524 349 488T293 431T215 411ZM216 461Q256 461 281 490T306 575Q306
618 284 641T226 665Q187 665 162 636T137 550Q137 507 158 484T216 461Z" />
<glyph unicode="&#xbb;" glyph-name="guillemotright" horiz-adv-x="453" d="M50 89Q36 97 34 113T47 149L131 270L89 394Q83 412 87 424T106 441Q123 448 137 442T158 420L210 297Q216 284 215 268T202 236L97 100Q89 89 76 86T50 89ZM237 89Q223 97 221 113T234
149L318 270L276 394Q270 412 274 424T293 441Q310 448 324 442T345 420L397 297Q403 284 402 268T389 236L284 100Q276 89 263 86T237 89Z" />
<glyph unicode="&#xbc;" glyph-name="onequarter" horiz-adv-x="898" d="M124 282Q90 282 90 310Q90 326 100 336T128 347H195L241 640L288 641L186 584Q169 574 156 578T137 595T135 620T156 643L249 694Q259 699 269 703T292 708Q308 708 314 701T320 685T320
669L269 347H311Q346 347 346 319Q346 303 336 293T308 282H124ZM272 -1Q263 -12 253 -16T232 -17T216 -7T209 12T218 36L711 706Q719 718 730 721T750 722T766 712T773 693T764 669L272 -1ZM740 -4Q723 -4 715 4T708 31L716 80H568Q551 80 539 86T527 109Q527
120 532 128T543 146L757 400Q766 411 777 419T807 427Q826 427 834 417T839 388L801 145H829Q840 145 848 138T857 117Q857 104 848 92T822 80H791L783 30Q780 13 769 5T740 -4ZM726 145L758 340H779L599 127L598 145H726Z" />
<glyph unicode="&#xbd;" glyph-name="onehalf" horiz-adv-x="942" d="M124 282Q90 282 90 310Q90 326 100 336T128 347H195L241 640L288 641L186 584Q169 574 156 578T137 595T135 620T156 643L249 694Q259 699 269 703T292 708Q308 708 314 701T320 685T320 669L269
347H311Q346 347 346 319Q346 303 336 293T308 282H124ZM272 -1Q263 -12 253 -16T232 -17T216 -7T209 12T218 36L711 706Q719 718 730 721T750 722T766 712T773 693T764 669L272 -1ZM613 0Q595 0 586 8T577 30Q577 42 582 50T598 67L745 200Q776 228 795 255T815
311Q816 336 799 349T752 363Q729 363 708 356T665 337Q651 330 641 334T625 349T623 372T642 393Q670 410 703 418T769 427Q810 427 838 413T881 375T896 321Q895 274 868 238T792 159L660 42L659 65H837Q872 65 872 37Q872 20 862 10T833 0H613Z" />
<glyph unicode="&#xbe;" glyph-name="threequarters" horiz-adv-x="898" d="M202 278Q167 278 131 287T67 315Q54 323 52 335T56 358T74 372T101 367Q122 352 147 347T202 342Q236 342 259 359T284 410Q285 436 267 449T213 463H168Q152 463 142 470T132 490Q132
506 142 517T172 528H219Q256 528 281 545T306 594Q307 618 289 631T239 645Q210 645 187 637T146 618Q131 610 121 614T106 629T104 652T122 672Q147 688 179 698T251 709Q312 709 347 681T381 607Q381 565 352 534T276 495L277 502Q316 494 337 468T358 406Q358
369 337 340T281 294T202 278ZM272 -1Q263 -12 253 -16T232 -17T216 -7T209 12T218 36L711 706Q719 718 730 721T750 722T766 712T773 693T764 669L272 -1ZM740 -4Q723 -4 715 4T708 31L716 80H568Q551 80 539 86T527 109Q527 120 532 128T543 146L757 400Q766
411 777 419T807 427Q826 427 834 417T839 388L801 145H829Q840 145 848 138T857 117Q857 104 848 92T822 80H791L783 30Q780 13 769 5T740 -4ZM726 145L758 340H779L599 127L598 145H726Z" />
<glyph unicode="&#xbf;" glyph-name="questiondown" horiz-adv-x="447" d="M152 -189Q99 -189 60 -170T-1 -119T-23 -46Q-24 9 9 51T94 132Q130 158 153 181T189 229T209 280Q212 292 218 298T239 304Q255 304 263 295T267 268Q261 235 250 207T217 152T156 95Q117
64 94 35T70 -30Q70 -64 94 -86T164 -109Q211 -109 249 -98T324 -64Q340 -54 353 -55T373 -64T383 -85T380 -109T361 -130Q318 -160 264 -174T152 -189ZM265 373Q239 373 223 389T206 432Q206 458 222 474T265 491Q293 491 308 475T324 432Q324 406 309 390T265
373Z" />
<glyph unicode="&#xc0;" glyph-name="Agrave" horiz-adv-x="733" d="M43 -7Q26 -7 15 1T2 22T8 52L386 680Q397 697 409 704T440 712Q459 712 471 703T489 675L664 54Q670 33 667 20T653 0T628 -7Q608 -7 597 3T580 35L538 196L571 176H148L191 194L90 22Q82 7
70 0T43 -7ZM428 600L215 236L193 252H551L527 235L430 600H428ZM411 771L321 887Q311 900 311 912T320 934T340 946T364 946T386 926L460 805Q467 793 464 782T452 765T431 759T411 771Z" />
<glyph unicode="&#xc1;" glyph-name="Aacute" horiz-adv-x="733" d="M43 -7Q26 -7 15 1T2 22T8 52L386 680Q397 697 409 704T440 712Q459 712 471 703T489 675L664 54Q670 33 667 20T653 0T628 -7Q608 -7 597 3T580 35L538 196L571 176H148L191 194L90 22Q82 7
70 0T43 -7ZM428 600L215 236L193 252H551L527 235L430 600H428ZM489 770Q479 760 468 759T449 764T438 781T444 803L540 929Q550 943 563 946T587 946T606 934T613 913T601 889L489 770Z" />
<glyph unicode="&#xc2;" glyph-name="Acircumflex" horiz-adv-x="733" d="M43 -7Q26 -7 15 1T2 22T8 52L386 680Q397 697 409 704T440 712Q459 712 471 703T489 675L664 54Q670 33 667 20T653 0T628 -7Q608 -7 597 3T580 35L538 196L571 176H148L191 194L90 22Q82
7 70 0T43 -7ZM428 600L215 236L193 252H551L527 235L430 600H428ZM348 768Q338 758 327 757T308 761T297 776T304 797L400 915Q414 932 428 940T463 948Q481 948 494 939T517 911L587 798Q596 785 592 775T578 760T556 757T535 772L456 880L348 768Z" />
<glyph unicode="&#xc3;" glyph-name="Atilde" horiz-adv-x="733" d="M43 -7Q26 -7 15 1T2 22T8 52L386 680Q397 697 409 704T440 712Q459 712 471 703T489 675L664 54Q670 33 667 20T653 0T628 -7Q608 -7 597 3T580 35L538 196L571 176H148L191 194L90 22Q82 7
70 0T43 -7ZM428 600L215 236L193 252H551L527 235L430 600H428ZM262 778Q250 779 245 787T242 811Q258 867 290 893T367 920Q395 920 418 909T463 884T505 858T545 847Q569 847 587 861T615 904Q619 916 626 921T645 925Q658 924 663 916T665 893Q650 838 617
811T540 783Q512 783 489 794T444 820T402 846T362 857Q338 857 320 843T292 799Q288 788 282 783T262 778Z" />
<glyph unicode="&#xc4;" glyph-name="Adieresis" horiz-adv-x="733" d="M43 -7Q26 -7 15 1T2 22T8 52L386 680Q397 697 409 704T440 712Q459 712 471 703T489 675L664 54Q670 33 667 20T653 0T628 -7Q608 -7 597 3T580 35L538 196L571 176H148L191 194L90 22Q82
7 70 0T43 -7ZM428 600L215 236L193 252H551L527 235L430 600H428ZM544 799Q523 799 512 809T501 838Q501 866 516 882T559 898Q580 898 591 888T602 859Q602 831 587 815T544 799ZM367 799Q346 799 335 809T324 838Q324 866 339 882T382 898Q403 898 414 888T425
859Q425 831 410 815T367 799Z" />
<glyph unicode="&#xc5;" glyph-name="Aring" horiz-adv-x="733" d="M43 -7Q26 -7 15 1T2 22T8 52L386 680Q397 697 409 704T440 712Q459 712 471 703T489 675L664 54Q670 33 667 20T653 0T628 -7Q608 -7 597 3T580 35L538 196L571 176H148L191 194L90 22Q82 7
70 0T43 -7ZM428 600L215 236L193 252H551L527 235L430 600H428ZM465 757Q431 757 404 773T360 815T344 875Q344 908 360 934T403 976T465 992Q499 992 526 977T569 935T585 875Q585 842 569 816T526 773T465 757ZM465 804Q496 804 515 824T535 875Q535 905 516
925T465 945Q434 945 414 925T394 875Q394 845 414 825T465 804Z" />
<glyph unicode="&#xc6;" glyph-name="AE" horiz-adv-x="984" d="M10 -7Q-9 -7 -19 2T-29 25T-19 52L464 680Q474 694 486 699T516 705H968Q988 705 998 698T1009 675Q1009 652 996 641T963 629H545L573 659L589 371L558 396H898Q917 396 927 389T938 366Q938 343
926 332T894 320H563L590 344L606 47L575 76H869Q888 76 899 69T910 46Q910 25 898 13T864 0H569Q527 0 525 41L516 203L545 176H155L195 201L59 20Q48 5 37 -1T10 -7ZM493 597L216 230L211 252H535L515 228L495 597H493Z" />
<glyph unicode="&#xc7;" glyph-name="Ccedilla" horiz-adv-x="675" d="M385 -9Q294 -9 224 25T115 130T76 308Q76 394 101 468T173 597T289 683T444 714Q505 714 559 696T654 645Q667 635 670 622T669 596T656 574T635 564T609 573Q570 604 529 617T440 630Q357
630 298 589T207 475T175 310Q175 226 200 174T275 99T393 75Q437 75 476 87T553 128Q568 138 580 137T602 128T614 107T613 82T595 59Q549 24 495 8T385 -9ZM348 -193Q330 -193 313 -191T279 -183Q266 -179 262 -169T260 -150T272 -135T294 -134Q305 -138 319
-140T348 -143Q376 -143 392 -134T409 -105Q409 -94 401 -88T374 -81Q367 -81 358 -82T340 -85Q333 -86 327 -86T318 -83Q314 -79 314 -74T315 -61L341 20H396L371 -56L346 -48Q358 -45 370 -43T392 -41Q427 -41 448 -57T469 -104Q469 -144 435 -168T348 -193Z"
/>
<glyph unicode="&#xc8;" glyph-name="Egrave" horiz-adv-x="586" d="M102 0Q75 0 63 14T55 54L151 659Q154 682 168 693T205 705H570Q590 705 600 698T611 675Q611 652 598 641T566 629H236L199 396H500Q520 396 530 389T540 366Q540 343 528 332T496 320H187L148
76H470Q489 76 499 69T510 46Q510 23 498 12T466 0H102ZM370 771L280 887Q270 900 270 912T279 934T299 946T323 946T345 926L419 805Q426 793 423 782T411 765T390 759T370 771Z" />
<glyph unicode="&#xc9;" glyph-name="Eacute" horiz-adv-x="586" d="M102 0Q75 0 63 14T55 54L151 659Q154 682 168 693T205 705H570Q590 705 600 698T611 675Q611 652 598 641T566 629H236L199 396H500Q520 396 530 389T540 366Q540 343 528 332T496 320H187L148
76H470Q489 76 499 69T510 46Q510 23 498 12T466 0H102ZM448 770Q438 760 427 759T408 764T397 781T403 803L499 929Q509 943 522 946T546 946T565 934T572 913T560 889L448 770Z" />
<glyph unicode="&#xca;" glyph-name="Ecircumflex" horiz-adv-x="586" d="M102 0Q75 0 63 14T55 54L151 659Q154 682 168 693T205 705H570Q590 705 600 698T611 675Q611 652 598 641T566 629H236L199 396H500Q520 396 530 389T540 366Q540 343 528 332T496 320H187L148
76H470Q489 76 499 69T510 46Q510 23 498 12T466 0H102ZM307 768Q297 758 286 757T267 761T256 776T263 797L359 915Q373 932 387 940T422 948Q440 948 453 939T476 911L546 798Q555 785 551 775T537 760T515 757T494 772L415 880L307 768Z" />
<glyph unicode="&#xcb;" glyph-name="Edieresis" horiz-adv-x="586" d="M102 0Q75 0 63 14T55 54L151 659Q154 682 168 693T205 705H570Q590 705 600 698T611 675Q611 652 598 641T566 629H236L199 396H500Q520 396 530 389T540 366Q540 343 528 332T496 320H187L148
76H470Q489 76 499 69T510 46Q510 23 498 12T466 0H102ZM503 799Q482 799 471 809T460 838Q460 866 475 882T518 898Q539 898 550 888T561 859Q561 831 546 815T503 799ZM326 799Q305 799 294 809T283 838Q283 866 298 882T341 898Q362 898 373 888T384 859Q384
831 369 815T326 799Z" />
<glyph unicode="&#xcc;" glyph-name="Igrave" horiz-adv-x="262" d="M94 -7Q70 -7 60 7T54 48L152 665Q155 689 168 700T204 712Q227 712 237 698T243 657L145 40Q142 17 130 5T94 -7ZM176 771L86 887Q76 900 76 912T85 934T105 946T129 946T151 926L225 805Q232
793 229 782T217 765T196 759T176 771Z" />
<glyph unicode="&#xcd;" glyph-name="Iacute" horiz-adv-x="262" d="M94 -7Q70 -7 60 7T54 48L152 665Q155 689 168 700T204 712Q227 712 237 698T243 657L145 40Q142 17 130 5T94 -7ZM254 770Q244 760 233 759T214 764T203 781T209 803L305 929Q315 943 328 946T352
946T371 934T378 913T366 889L254 770Z" />
<glyph unicode="&#xce;" glyph-name="Icircumflex" horiz-adv-x="262" d="M94 -7Q70 -7 60 7T54 48L152 665Q155 689 168 700T204 712Q227 712 237 698T243 657L145 40Q142 17 130 5T94 -7ZM113 768Q103 758 92 757T73 761T62 776T69 797L165 915Q179 932 193
940T228 948Q246 948 259 939T282 911L352 798Q361 785 357 775T343 760T321 757T300 772L221 880L113 768Z" />
<glyph unicode="&#xcf;" glyph-name="Idieresis" horiz-adv-x="262" d="M94 -7Q70 -7 60 7T54 48L152 665Q155 689 168 700T204 712Q227 712 237 698T243 657L145 40Q142 17 130 5T94 -7ZM309 799Q288 799 277 809T266 838Q266 866 281 882T324 898Q345 898 356
888T367 859Q367 831 352 815T309 799ZM132 799Q111 799 100 809T89 838Q89 866 104 882T147 898Q168 898 179 888T190 859Q190 831 175 815T132 799Z" />
<glyph unicode="&#xd0;" glyph-name="Eth" horiz-adv-x="747" d="M101 0Q76 0 64 14T55 54L151 659Q154 682 168 693T205 705H369Q531 705 619 628T707 409Q707 324 683 250T610 120T485 32T307 0H101ZM151 79H309Q390 79 447 104T540 175T593 280T610 408Q610
514 550 570T369 626H238L151 79ZM46 322Q27 322 17 330T7 352Q7 372 19 382T51 393H359Q377 393 387 386T398 364Q398 345 387 334T354 322H46Z" />
<glyph unicode="&#xd1;" glyph-name="Ntilde" horiz-adv-x="741" d="M91 -7Q70 -7 60 6T53 45L153 672Q157 693 168 702T197 712Q215 712 224 705T242 682L572 115H550L637 669Q641 691 653 701T687 712Q708 712 717 699T722 661L623 34Q620 13 610 3T582 -7Q564
-7 554 0T533 24L204 590H226L138 36Q135 14 124 4T91 -7ZM265 778Q253 779 248 787T245 811Q261 867 293 893T370 920Q398 920 421 909T466 884T508 858T548 847Q572 847 590 861T618 904Q622 916 629 921T648 925Q661 924 666 916T668 893Q653 838 620 811T543
783Q515 783 492 794T447 820T405 846T365 857Q341 857 323 843T295 799Q291 788 285 783T265 778Z" />
<glyph unicode="&#xd2;" glyph-name="Ograve" horiz-adv-x="771" d="M371 -9Q281 -9 215 26T112 129T75 295Q75 384 99 460T169 594T282 682T435 714Q525 714 591 679T694 576T731 411Q731 321 707 245T637 111T524 23T371 -9ZM373 73Q458 73 515 117T603 237T634
410Q634 522 581 577T432 632Q348 632 291 589T203 469T172 296Q172 183 226 128T373 73ZM419 771L329 887Q319 900 319 912T328 934T348 946T372 946T394 926L468 805Q475 793 472 782T460 765T439 759T419 771Z" />
<glyph unicode="&#xd3;" glyph-name="Oacute" horiz-adv-x="771" d="M371 -9Q281 -9 215 26T112 129T75 295Q75 384 99 460T169 594T282 682T435 714Q525 714 591 679T694 576T731 411Q731 321 707 245T637 111T524 23T371 -9ZM373 73Q458 73 515 117T603 237T634
410Q634 522 581 577T432 632Q348 632 291 589T203 469T172 296Q172 183 226 128T373 73ZM497 770Q487 760 476 759T457 764T446 781T452 803L548 929Q558 943 571 946T595 946T614 934T621 913T609 889L497 770Z" />
<glyph unicode="&#xd4;" glyph-name="Ocircumflex" horiz-adv-x="771" d="M371 -9Q281 -9 215 26T112 129T75 295Q75 384 99 460T169 594T282 682T435 714Q525 714 591 679T694 576T731 411Q731 321 707 245T637 111T524 23T371 -9ZM373 73Q458 73 515 117T603
237T634 410Q634 522 581 577T432 632Q348 632 291 589T203 469T172 296Q172 183 226 128T373 73ZM356 768Q346 758 335 757T316 761T305 776T312 797L408 915Q422 932 436 940T471 948Q489 948 502 939T525 911L595 798Q604 785 600 775T586 760T564 757T543 772L464
880L356 768Z" />
<glyph unicode="&#xd5;" glyph-name="Otilde" horiz-adv-x="771" d="M371 -9Q281 -9 215 26T112 129T75 295Q75 384 99 460T169 594T282 682T435 714Q525 714 591 679T694 576T731 411Q731 321 707 245T637 111T524 23T371 -9ZM373 73Q458 73 515 117T603 237T634
410Q634 522 581 577T432 632Q348 632 291 589T203 469T172 296Q172 183 226 128T373 73ZM270 778Q258 779 253 787T250 811Q266 867 298 893T375 920Q403 920 426 909T471 884T513 858T553 847Q577 847 595 861T623 904Q627 916 634 921T653 925Q666 924 671 916T673
893Q658 838 625 811T548 783Q520 783 497 794T452 820T410 846T370 857Q346 857 328 843T300 799Q296 788 290 783T270 778Z" />
<glyph unicode="&#xd6;" glyph-name="Odieresis" horiz-adv-x="771" d="M371 -9Q281 -9 215 26T112 129T75 295Q75 384 99 460T169 594T282 682T435 714Q525 714 591 679T694 576T731 411Q731 321 707 245T637 111T524 23T371 -9ZM373 73Q458 73 515 117T603 237T634
410Q634 522 581 577T432 632Q348 632 291 589T203 469T172 296Q172 183 226 128T373 73ZM552 799Q531 799 520 809T509 838Q509 866 524 882T567 898Q588 898 599 888T610 859Q610 831 595 815T552 799ZM375 799Q354 799 343 809T332 838Q332 866 347 882T390
898Q411 898 422 888T433 859Q433 831 418 815T375 799Z" />
<glyph unicode="&#xd7;" glyph-name="multiply" horiz-adv-x="600" d="M124 70Q110 57 97 58T74 69T65 92T77 118L259 287L108 452Q99 463 98 473T103 493T118 507T139 510T160 497L310 333L491 500Q505 512 519 511T541 501T551 477T539 452L355 284L509 115Q518
105 518 94T514 74T499 61T478 58T456 71L305 236L124 70Z" />
<glyph unicode="&#xd8;" glyph-name="Oslash" horiz-adv-x="771" d="M371 -9Q281 -9 215 26T112 129T75 295Q75 384 99 460T169 594T282 682T435 714Q525 714 591 679T694 576T731 411Q731 321 707 245T637 111T524 23T371 -9ZM373 73Q458 73 515 117T603 237T634
410Q634 522 581 577T432 632Q348 632 291 589T203 469T172 296Q172 183 226 128T373 73ZM167 -22Q158 -33 148 -35T128 -35T112 -23T105 -4T113 19L170 95L200 135L552 610L582 651L637 725Q647 737 657 740T678 740T694 728T700 708T692 685L636 611L606 570L254
95L224 55L167 -22Z" />
<glyph unicode="&#xd9;" glyph-name="Ugrave" horiz-adv-x="731" d="M336 -9Q270 -9 219 10T134 67T88 164T89 299L147 668Q151 691 164 701T198 712Q221 712 231 699T238 660L180 291Q163 183 204 128T342 73Q437 73 491 121T562 274L625 668Q629 691 641 701T676
712Q698 712 708 699T716 660L654 272Q640 179 601 117T497 23T336 -9ZM409 771L319 887Q309 900 309 912T318 934T338 946T362 946T384 926L458 805Q465 793 462 782T450 765T429 759T409 771Z" />
<glyph unicode="&#xda;" glyph-name="Uacute" horiz-adv-x="731" d="M336 -9Q270 -9 219 10T134 67T88 164T89 299L147 668Q151 691 164 701T198 712Q221 712 231 699T238 660L180 291Q163 183 204 128T342 73Q437 73 491 121T562 274L625 668Q629 691 641 701T676
712Q698 712 708 699T716 660L654 272Q640 179 601 117T497 23T336 -9ZM487 770Q477 760 466 759T447 764T436 781T442 803L538 929Q548 943 561 946T585 946T604 934T611 913T599 889L487 770Z" />
<glyph unicode="&#xdb;" glyph-name="Ucircumflex" horiz-adv-x="731" d="M336 -9Q270 -9 219 10T134 67T88 164T89 299L147 668Q151 691 164 701T198 712Q221 712 231 699T238 660L180 291Q163 183 204 128T342 73Q437 73 491 121T562 274L625 668Q629 691 641
701T676 712Q698 712 708 699T716 660L654 272Q640 179 601 117T497 23T336 -9ZM346 768Q336 758 325 757T306 761T295 776T302 797L398 915Q412 932 426 940T461 948Q479 948 492 939T515 911L585 798Q594 785 590 775T576 760T554 757T533 772L454 880L346 768Z"
/>
<glyph unicode="&#xdc;" glyph-name="Udieresis" horiz-adv-x="731" d="M336 -9Q270 -9 219 10T134 67T88 164T89 299L147 668Q151 691 164 701T198 712Q221 712 231 699T238 660L180 291Q163 183 204 128T342 73Q437 73 491 121T562 274L625 668Q629 691 641
701T676 712Q698 712 708 699T716 660L654 272Q640 179 601 117T497 23T336 -9ZM542 799Q521 799 510 809T499 838Q499 866 514 882T557 898Q578 898 589 888T600 859Q600 831 585 815T542 799ZM365 799Q344 799 333 809T322 838Q322 866 337 882T380 898Q401 898
412 888T423 859Q423 831 408 815T365 799Z" />
<glyph unicode="&#xdd;" glyph-name="Yacute" horiz-adv-x="601" d="M261 -7Q238 -7 229 7T223 47L273 365L283 303L91 645Q81 663 82 678T95 702T125 712Q142 712 152 705T174 677L330 397H307L560 684Q574 700 585 706T612 712Q629 712 640 702T651 677T637
645L335 303L366 365L314 39Q307 -7 261 -7ZM414 770Q404 760 393 759T374 764T363 781T369 803L465 929Q475 943 488 946T512 946T531 934T538 913T526 889L414 770Z" />
<glyph unicode="&#xde;" glyph-name="Thorn" horiz-adv-x="638" d="M92 -7Q70 -7 60 7T54 48L151 663Q155 686 168 697T205 709Q227 709 238 697T245 665L231 580H397Q507 580 567 532T627 390Q627 280 558 217T360 153H163L145 39Q142 16 129 5T92 -7ZM175 228H366Q449
228 492 267T536 383Q536 446 499 475T389 504H219L175 228Z" />
<glyph unicode="&#xdf;" glyph-name="germandbls" horiz-adv-x="624" d="M385 -9Q339 -9 295 3T220 35Q207 44 203 55T201 77T210 97T228 106T253 99Q282 81 315 72T385 62Q436 62 464 81T493 137Q493 161 474 181T401 219Q334 242 307 271T280 343Q280 370 289
391T319 434T377 484Q407 507 424 528T442 581Q442 607 424 625T366 644Q297 644 257 605T203 489L132 36Q129 15 116 4T82 -7Q59 -7 49 6T42 44L111 479Q129 594 191 654T369 714Q419 714 455 698T510 653T529 591Q529 543 505 512T439 447Q415 428 399 414T374
385T366 354Q366 332 385 315T454 280Q514 259 546 229T578 146Q578 97 554 63T486 10T385 -9Z" />
<glyph unicode="&#xe0;" glyph-name="agrave" horiz-adv-x="533" d="M198 -9Q155 -9 119 10T60 62T37 138Q37 190 66 221T156 268T312 284H393L384 226H322Q249 226 207 219T147 193T128 144Q128 102 156 80T222 57Q257 57 287 73T339 118T367 190L386 311Q395
366 371 395T285 425Q250 425 217 418T151 392Q137 385 125 387T106 396T97 415T102 437T126 457Q165 477 209 486T296 496Q367 496 408 470T465 397T470 287L430 38Q428 16 415 5T381 -7Q361 -7 352 6T345 44L357 121L365 109Q352 69 326 43T266 4T198 -9ZM278
559L175 707Q164 722 165 735T175 756T196 766T222 762T243 739L328 587Q336 574 333 564T320 548T299 544T278 559Z" />
<glyph unicode="&#xe1;" glyph-name="aacute" horiz-adv-x="533" d="M198 -9Q155 -9 119 10T60 62T37 138Q37 190 66 221T156 268T312 284H393L384 226H322Q249 226 207 219T147 193T128 144Q128 102 156 80T222 57Q257 57 287 73T339 118T367 190L386 311Q395
366 371 395T285 425Q250 425 217 418T151 392Q137 385 125 387T106 396T97 415T102 437T126 457Q165 477 209 486T296 496Q367 496 408 470T465 397T470 287L430 38Q428 16 415 5T381 -7Q361 -7 352 6T345 44L357 121L365 109Q352 69 326 43T266 4T198 -9ZM352
556Q343 545 332 544T313 548T302 564T308 587L413 746Q423 761 435 765T459 766T477 753T485 732T475 707L352 556Z" />
<glyph unicode="&#xe2;" glyph-name="acircumflex" horiz-adv-x="533" d="M198 -9Q155 -9 119 10T60 62T37 138Q37 190 66 221T156 268T312 284H393L384 226H322Q249 226 207 219T147 193T128 144Q128 102 156 80T222 57Q257 57 287 73T339 118T367 190L386 311Q395
366 371 395T285 425Q250 425 217 418T151 392Q137 385 125 387T106 396T97 415T102 437T126 457Q165 477 209 486T296 496Q367 496 408 470T465 397T470 287L430 38Q428 16 415 5T381 -7Q361 -7 352 6T345 44L357 121L365 109Q352 69 326 43T266 4T198 -9ZM452
584Q458 571 453 561T439 547T419 544T402 558L331 696L228 557Q220 547 209 545T189 547T178 562T183 585L279 732Q291 750 305 758T336 767Q353 767 366 759T386 733L452 584Z" />
<glyph unicode="&#xe3;" glyph-name="atilde" horiz-adv-x="533" d="M198 -9Q155 -9 119 10T60 62T37 138Q37 190 66 221T156 268T312 284H393L384 226H322Q249 226 207 219T147 193T128 144Q128 102 156 80T222 57Q257 57 287 73T339 118T367 190L386 311Q395
366 371 395T285 425Q250 425 217 418T151 392Q137 385 125 387T106 396T97 415T102 437T126 457Q165 477 209 486T296 496Q367 496 408 470T465 397T470 287L430 38Q428 16 415 5T381 -7Q361 -7 352 6T345 44L357 121L365 109Q352 69 326 43T266 4T198 -9ZM164
587Q152 588 146 595T143 616Q149 643 160 664T186 699T219 721T257 729Q282 729 299 718T331 692T361 666T395 655Q416 655 433 670T457 713Q460 724 468 729T488 734Q500 733 505 725T508 704Q500 668 484 643T445 605T395 592Q370 592 352 603T320 628T290 654T257
665Q236 665 219 650T194 607Q191 596 183 591T164 587Z" />
<glyph unicode="&#xe4;" glyph-name="adieresis" horiz-adv-x="533" d="M198 -9Q155 -9 119 10T60 62T37 138Q37 190 66 221T156 268T312 284H393L384 226H322Q249 226 207 219T147 193T128 144Q128 102 156 80T222 57Q257 57 287 73T339 118T367 190L386 311Q395
366 371 395T285 425Q250 425 217 418T151 392Q137 385 125 387T106 396T97 415T102 437T126 457Q165 477 209 486T296 496Q367 496 408 470T465 397T470 287L430 38Q428 16 415 5T381 -7Q361 -7 352 6T345 44L357 121L365 109Q352 69 326 43T266 4T198 -9ZM414
603Q394 603 383 613T371 642Q371 670 386 686T429 702Q450 702 461 692T473 663Q473 635 458 619T414 603ZM237 603Q216 603 205 613T193 642Q193 670 208 686T251 702Q272 702 283 692T295 663Q295 635 280 619T237 603Z" />
<glyph unicode="&#xe5;" glyph-name="aring" horiz-adv-x="533" d="M198 -9Q155 -9 119 10T60 62T37 138Q37 190 66 221T156 268T312 284H393L384 226H322Q249 226 207 219T147 193T128 144Q128 102 156 80T222 57Q257 57 287 73T339 118T367 190L386 311Q395
366 371 395T285 425Q250 425 217 418T151 392Q137 385 125 387T106 396T97 415T102 437T126 457Q165 477 209 486T296 496Q367 496 408 470T465 397T470 287L430 38Q428 16 415 5T381 -7Q361 -7 352 6T345 44L357 121L365 109Q352 69 326 43T266 4T198 -9ZM335
546Q302 546 275 562T231 604T215 663Q215 697 231 723T274 765T335 781Q370 781 397 765T439 723T455 663Q455 631 440 605T397 562T335 546ZM335 593Q366 593 386 613T406 663Q406 694 386 714T335 734Q305 734 285 714T265 664Q265 633 285 613T335 593Z" />
<glyph unicode="&#xe6;" glyph-name="ae" horiz-adv-x="862" d="M211 -9Q166 -9 127 8T62 58T37 138Q37 190 66 221T156 268T312 283H393L384 226H323Q250 226 208 218T147 192T128 143Q128 102 156 80T222 58Q257 58 287 72T339 115T367 184L387 304Q397 364
372 394T285 425Q250 425 217 418T151 392Q137 385 125 387T106 396T97 415T102 437T126 457Q165 477 209 486T296 496Q366 496 407 466T459 379H428Q460 433 511 464T632 496Q693 496 732 475T794 419T823 342T824 258L823 247Q822 236 814 231T795 226H441L449
283H767L749 267Q756 312 746 349T709 408T630 430Q580 430 546 407T492 347T466 270L462 245Q448 162 486 113T604 63Q639 63 672 71T735 98Q750 108 761 107T780 99T788 82T785 60T767 39Q733 15 687 3T599 -9Q513 -9 459 30T389 141H415Q393 64 337 28T211 -9Z"
/>
<glyph unicode="&#xe7;" glyph-name="ccedilla" horiz-adv-x="465" d="M261 -9Q187 -9 139 18T67 95T43 208Q43 262 58 313T106 406T188 471T307 496Q344 496 379 486T442 460Q457 450 463 439T468 415T459 395T441 385T417 391Q392 408 367 415T311 423Q264 423
231 405T177 355T146 287T136 209Q136 143 168 104T272 64Q295 64 320 71T371 94Q382 101 392 99T410 90T419 72T418 50T400 31Q373 12 335 2T261 -9ZM221 -193Q203 -193 186 -191T152 -183Q139 -179 135 -169T133 -150T145 -135T167 -134Q178 -138 192 -140T221
-143Q249 -143 265 -134T282 -105Q282 -94 274 -88T247 -81Q240 -81 231 -82T213 -85Q206 -86 200 -86T191 -83Q187 -79 187 -74T188 -61L214 20H269L244 -56L219 -48Q231 -45 243 -43T265 -41Q300 -41 321 -57T342 -104Q342 -144 308 -168T221 -193Z" />
<glyph unicode="&#xe8;" glyph-name="egrave" horiz-adv-x="534" d="M272 -9Q202 -9 151 17T71 92T43 207Q43 287 75 352T166 457T305 496Q363 496 402 476T464 421T494 343T496 253Q494 235 487 229T465 223H114L122 281H440L422 267Q429 313 419 349T381 408T304
430Q252 430 217 407T163 347T137 270L132 245Q119 162 158 113T278 63Q313 63 346 71T409 98Q423 108 434 107T453 99T462 82T459 60T441 39Q407 15 361 3T272 -9ZM286 559L183 707Q172 722 173 735T183 756T204 766T230 762T251 739L336 587Q344 574 341 564T328
548T307 544T286 559Z" />
<glyph unicode="&#xe9;" glyph-name="eacute" horiz-adv-x="534" d="M272 -9Q202 -9 151 17T71 92T43 207Q43 287 75 352T166 457T305 496Q363 496 402 476T464 421T494 343T496 253Q494 235 487 229T465 223H114L122 281H440L422 267Q429 313 419 349T381 408T304
430Q252 430 217 407T163 347T137 270L132 245Q119 162 158 113T278 63Q313 63 346 71T409 98Q423 108 434 107T453 99T462 82T459 60T441 39Q407 15 361 3T272 -9ZM360 556Q351 545 340 544T321 548T310 564T316 587L421 746Q431 761 443 765T467 766T485 753T493
732T483 707L360 556Z" />
<glyph unicode="&#xea;" glyph-name="ecircumflex" horiz-adv-x="534" d="M272 -9Q202 -9 151 17T71 92T43 207Q43 287 75 352T166 457T305 496Q363 496 402 476T464 421T494 343T496 253Q494 235 487 229T465 223H114L122 281H440L422 267Q429 313 419 349T381
408T304 430Q252 430 217 407T163 347T137 270L132 245Q119 162 158 113T278 63Q313 63 346 71T409 98Q423 108 434 107T453 99T462 82T459 60T441 39Q407 15 361 3T272 -9ZM460 584Q466 571 461 561T447 547T427 544T410 558L339 696L236 557Q228 547 217 545T197
547T186 562T191 585L287 732Q299 750 313 758T344 767Q361 767 374 759T394 733L460 584Z" />
<glyph unicode="&#xeb;" glyph-name="edieresis" horiz-adv-x="534" d="M272 -9Q202 -9 151 17T71 92T43 207Q43 287 75 352T166 457T305 496Q363 496 402 476T464 421T494 343T496 253Q494 235 487 229T465 223H114L122 281H440L422 267Q429 313 419 349T381
408T304 430Q252 430 217 407T163 347T137 270L132 245Q119 162 158 113T278 63Q313 63 346 71T409 98Q423 108 434 107T453 99T462 82T459 60T441 39Q407 15 361 3T272 -9ZM422 603Q402 603 391 613T379 642Q379 670 394 686T437 702Q458 702 469 692T481 663Q481
635 466 619T422 603ZM245 603Q224 603 213 613T201 642Q201 670 216 686T259 702Q280 702 291 692T303 663Q303 635 288 619T245 603Z" />
<glyph unicode="&#xec;" glyph-name="igrave" horiz-adv-x="237" d="M79 -7Q58 -7 48 7T42 46L106 449Q109 472 122 483T158 494Q179 494 189 480T195 441L131 38Q128 16 115 5T79 -7ZM130 559L27 707Q16 722 17 735T27 756T48 766T74 762T95 739L180 587Q188
574 185 564T172 548T151 544T130 559Z" />
<glyph unicode="&#xed;" glyph-name="iacute" horiz-adv-x="237" d="M79 -7Q58 -7 48 7T42 46L106 449Q109 472 122 483T158 494Q179 494 189 480T195 441L131 38Q128 16 115 5T79 -7ZM204 556Q195 545 184 544T165 548T154 564T160 587L265 746Q275 761 287 765T311
766T329 753T337 732T327 707L204 556Z" />
<glyph unicode="&#xee;" glyph-name="icircumflex" horiz-adv-x="237" d="M79 -7Q58 -7 48 7T42 46L106 449Q109 472 122 483T158 494Q179 494 189 480T195 441L131 38Q128 16 115 5T79 -7ZM304 584Q310 571 305 561T291 547T271 544T254 558L183 696L80 557Q72
547 61 545T41 547T30 562T35 585L131 732Q143 750 157 758T188 767Q205 767 218 759T238 733L304 584Z" />
<glyph unicode="&#xef;" glyph-name="idieresis" horiz-adv-x="237" d="M79 -7Q58 -7 48 7T42 46L106 449Q109 472 122 483T158 494Q179 494 189 480T195 441L131 38Q128 16 115 5T79 -7ZM266 603Q246 603 235 613T223 642Q223 670 238 686T281 702Q302 702 313
692T325 663Q325 635 310 619T266 603ZM89 603Q68 603 57 613T45 642Q45 670 60 686T103 702Q124 702 135 692T147 663Q147 635 132 619T89 603Z" />
<glyph unicode="&#xf0;" glyph-name="eth" horiz-adv-x="565" d="M255 -9Q194 -9 145 15T68 85T40 189Q40 267 72 326T161 418T288 452Q335 452 373 436T435 388T464 303L445 302Q451 396 421 470T330 593L346 590L206 530Q193 524 184 528T170 542T169 562T186
578L296 625L295 615Q279 626 260 634T219 648Q202 654 196 665T192 688T208 706T238 708Q277 697 310 683T371 649L354 650L484 707Q498 713 508 709T521 695T522 675T505 659L401 614L403 624Q447 587 474 539T514 435T527 315Q527 251 511 193T462 89T377 17T255
-9ZM262 64Q308 64 344 86T403 150T425 252Q425 313 391 346T295 380Q250 380 213 358T154 294T132 192Q132 131 167 98T262 64Z" />
<glyph unicode="&#xf1;" glyph-name="ntilde" horiz-adv-x="572" d="M80 -7Q59 -7 49 8T43 48L106 449Q110 472 123 483T158 494Q179 494 188 482T194 444L181 365L175 379Q200 435 247 465T362 496Q416 496 452 475T504 408T509 294L468 38Q466 16 453 5T416
-7Q395 -7 385 7T378 47L418 293Q428 358 407 390T332 422Q262 422 221 379T168 263L132 39Q126 -7 80 -7ZM181 587Q169 588 163 595T160 616Q166 643 177 664T203 699T236 721T274 729Q299 729 316 718T348 692T378 666T412 655Q433 655 450 670T474 713Q477 724
485 729T505 734Q517 733 522 725T525 704Q517 668 501 643T462 605T412 592Q387 592 369 603T337 628T307 654T274 665Q253 665 236 650T211 607Q208 596 200 591T181 587Z" />
<glyph unicode="&#xf2;" glyph-name="ograve" horiz-adv-x="560" d="M258 -9Q191 -9 143 17T69 91T43 206Q43 269 61 322T115 414T197 474T302 496Q370 496 418 470T492 396T518 280Q518 218 499 165T446 73T364 13T258 -9ZM261 63Q314 63 350 92T406 172T426
284Q426 352 393 388T300 424Q247 424 210 395T154 315T135 203Q135 135 168 99T261 63ZM293 559L190 707Q179 722 180 735T190 756T211 766T237 762T258 739L343 587Q351 574 348 564T335 548T314 544T293 559Z" />
<glyph unicode="&#xf3;" glyph-name="oacute" horiz-adv-x="560" d="M258 -9Q191 -9 143 17T69 91T43 206Q43 269 61 322T115 414T197 474T302 496Q370 496 418 470T492 396T518 280Q518 218 499 165T446 73T364 13T258 -9ZM261 63Q314 63 350 92T406 172T426
284Q426 352 393 388T300 424Q247 424 210 395T154 315T135 203Q135 135 168 99T261 63ZM367 556Q358 545 347 544T328 548T317 564T323 587L428 746Q438 761 450 765T474 766T492 753T500 732T490 707L367 556Z" />
<glyph unicode="&#xf4;" glyph-name="ocircumflex" horiz-adv-x="560" d="M258 -9Q191 -9 143 17T69 91T43 206Q43 269 61 322T115 414T197 474T302 496Q370 496 418 470T492 396T518 280Q518 218 499 165T446 73T364 13T258 -9ZM261 63Q314 63 350 92T406 172T426
284Q426 352 393 388T300 424Q247 424 210 395T154 315T135 203Q135 135 168 99T261 63ZM467 584Q473 571 468 561T454 547T434 544T417 558L346 696L243 557Q235 547 224 545T204 547T193 562T198 585L294 732Q306 750 320 758T351 767Q368 767 381 759T401 733L467
584Z" />
<glyph unicode="&#xf5;" glyph-name="otilde" horiz-adv-x="560" d="M258 -9Q191 -9 143 17T69 91T43 206Q43 269 61 322T115 414T197 474T302 496Q370 496 418 470T492 396T518 280Q518 218 499 165T446 73T364 13T258 -9ZM261 63Q314 63 350 92T406 172T426
284Q426 352 393 388T300 424Q247 424 210 395T154 315T135 203Q135 135 168 99T261 63ZM179 587Q167 588 161 595T158 616Q164 643 175 664T201 699T234 721T272 729Q297 729 314 718T346 692T376 666T410 655Q431 655 448 670T472 713Q475 724 483 729T503 734Q515
733 520 725T523 704Q515 668 499 643T460 605T410 592Q385 592 367 603T335 628T305 654T272 665Q251 665 234 650T209 607Q206 596 198 591T179 587Z" />
<glyph unicode="&#xf6;" glyph-name="odieresis" horiz-adv-x="560" d="M258 -9Q191 -9 143 17T69 91T43 206Q43 269 61 322T115 414T197 474T302 496Q370 496 418 470T492 396T518 280Q518 218 499 165T446 73T364 13T258 -9ZM261 63Q314 63 350 92T406 172T426
284Q426 352 393 388T300 424Q247 424 210 395T154 315T135 203Q135 135 168 99T261 63ZM429 603Q409 603 398 613T386 642Q386 670 401 686T444 702Q465 702 476 692T488 663Q488 635 473 619T429 603ZM252 603Q231 603 220 613T208 642Q208 670 223 686T266 702Q287
702 298 692T310 663Q310 635 295 619T252 603Z" />
<glyph unicode="&#xf7;" glyph-name="divide" horiz-adv-x="600" d="M92 253Q75 253 66 260T56 281Q56 299 66 310T96 321H521Q540 321 549 314T558 293Q558 274 548 264T518 253H92ZM262 39Q242 39 231 50T219 79Q219 104 235 121T277 138Q297 138 308 127T319
98Q319 72 304 56T262 39ZM325 436Q305 436 294 447T282 476Q282 501 298 517T340 534Q360 534 371 524T382 495Q382 469 367 453T325 436Z" />
<glyph unicode="&#xf8;" glyph-name="oslash" horiz-adv-x="560" d="M259 -9Q192 -9 144 17T69 92T43 207Q43 270 62 322T115 414T197 474T303 496Q370 496 418 470T492 396T518 280Q518 218 500 165T446 73T364 13T259 -9ZM262 59Q317 59 355 89T413 170T433
285Q433 355 398 391T299 428Q245 428 207 399T148 318T128 203Q128 132 163 96T262 59ZM119 -25Q111 -36 100 -37T80 -32T69 -14T75 10L443 511Q452 523 463 523T482 518T493 500T487 476L119 -25Z" />
<glyph unicode="&#xf9;" glyph-name="ugrave" horiz-adv-x="565" d="M208 -9Q156 -9 120 12T68 79T63 194L104 451Q108 474 120 484T154 494Q177 494 187 481T194 443L155 194Q145 129 165 97T238 65Q305 65 346 108T398 224L434 451Q437 474 449 484T483 494Q506
494 516 481T523 444L459 36Q452 -7 409 -7Q388 -7 378 5T371 41L384 125L392 109Q368 52 320 22T208 -9ZM290 560L187 708Q176 723 177 736T187 757T208 767T234 763T255 740L340 588Q348 575 345 565T332 549T311 545T290 560Z" />
<glyph unicode="&#xfa;" glyph-name="uacute" horiz-adv-x="565" d="M208 -9Q156 -9 120 12T68 79T63 194L104 451Q108 474 120 484T154 494Q177 494 187 481T194 443L155 194Q145 129 165 97T238 65Q305 65 346 108T398 224L434 451Q437 474 449 484T483 494Q506
494 516 481T523 444L459 36Q452 -7 409 -7Q388 -7 378 5T371 41L384 125L392 109Q368 52 320 22T208 -9ZM364 557Q355 546 344 545T325 549T314 565T320 588L425 747Q435 762 447 766T471 767T489 754T497 733T487 708L364 557Z" />
<glyph unicode="&#xfb;" glyph-name="ucircumflex" horiz-adv-x="565" d="M208 -9Q156 -9 120 12T68 79T63 194L104 451Q108 474 120 484T154 494Q177 494 187 481T194 443L155 194Q145 129 165 97T238 65Q305 65 346 108T398 224L434 451Q437 474 449 484T483
494Q506 494 516 481T523 444L459 36Q452 -7 409 -7Q388 -7 378 5T371 41L384 125L392 109Q368 52 320 22T208 -9ZM464 585Q470 572 465 562T451 548T431 545T414 559L343 697L240 558Q232 548 221 546T201 548T190 563T195 586L291 733Q303 751 317 759T348 768Q365
768 378 760T398 734L464 585Z" />
<glyph unicode="&#xfc;" glyph-name="udieresis" horiz-adv-x="565" d="M208 -9Q156 -9 120 12T68 79T63 194L104 451Q108 474 120 484T154 494Q177 494 187 481T194 443L155 194Q145 129 165 97T238 65Q305 65 346 108T398 224L434 451Q437 474 449 484T483 494Q506
494 516 481T523 444L459 36Q452 -7 409 -7Q388 -7 378 5T371 41L384 125L392 109Q368 52 320 22T208 -9ZM426 604Q406 604 395 614T383 643Q383 671 398 687T441 703Q462 703 473 693T485 664Q485 636 470 620T426 604ZM249 604Q228 604 217 614T205 643Q205 671
220 687T263 703Q284 703 295 693T307 664Q307 636 292 620T249 604Z" />
<glyph unicode="&#xfd;" glyph-name="yacute" horiz-adv-x="517" d="M120 -187Q102 -187 93 -179T83 -157T92 -127L186 29L180 -9L61 430Q56 449 59 463T73 486T102 494Q122 494 131 485T146 452L241 70H213L437 461Q448 478 458 486T487 494Q505 494 515 486T526
464T518 434L170 -154Q160 -171 149 -179T120 -187ZM331 556Q322 545 311 544T292 548T281 564T287 587L392 746Q402 761 414 765T438 766T456 753T464 732T454 707L331 556Z" />
<glyph unicode="&#xfe;" glyph-name="thorn" horiz-adv-x="587" d="M51 -187Q30 -187 20 -173T13 -134L140 666Q144 689 157 700T192 712Q214 712 224 699T230 661L184 369L177 387Q204 439 250 467T358 496Q414 496 456 471T521 399T545 287Q545 206 516 139T433
32T300 -9Q242 -9 197 20T135 107H143L103 -144Q99 -166 87 -176T51 -187ZM288 63Q341 63 377 92T433 172T453 284Q453 352 420 388T327 424Q274 424 237 395T181 315T162 203Q162 135 195 99T288 63Z" />
<glyph unicode="&#xff;" glyph-name="ydieresis" horiz-adv-x="517" d="M120 -187Q102 -187 93 -179T83 -157T92 -127L186 29L180 -9L61 430Q56 449 59 463T73 486T102 494Q122 494 131 485T146 452L241 70H213L437 461Q448 478 458 486T487 494Q505 494 515 486T526
464T518 434L170 -154Q160 -171 149 -179T120 -187ZM393 603Q373 603 362 613T350 642Q350 670 365 686T408 702Q429 702 440 692T452 663Q452 635 437 619T393 603ZM216 603Q195 603 184 613T172 642Q172 670 187 686T230 702Q251 702 262 692T274 663Q274 635
259 619T216 603Z" />
<glyph unicode="&#x2013;" glyph-name="endash" horiz-adv-x="500" d="M27 238Q10 238 2 245T-6 263Q-6 277 4 286T30 296H480Q498 296 506 289T514 271Q514 256 503 247T478 238H27Z" />
<glyph unicode="&#x2014;" glyph-name="emdash" horiz-adv-x="1000" d="M29 238Q12 238 4 245T-4 263Q-4 277 6 286T32 296H977Q995 296 1003 289T1011 271Q1011 256 1000 247T975 238H29Z" />
<glyph unicode="&#x2018;" glyph-name="quoteleft" horiz-adv-x="233" d="M173 694Q185 705 197 705T216 699T224 680T212 657Q191 635 181 617T166 575L160 598Q188 598 205 582T222 539Q222 513 207 497T164 480Q137 480 122 498T107 546Q107 574 114 600T137
649T173 694Z" />
<glyph unicode="&#x2019;" glyph-name="quoteright" horiz-adv-x="233" d="M171 495Q158 484 147 484T128 490T120 509T132 532Q154 554 164 572T178 614L184 591Q156 591 139 607T122 650Q122 676 138 692T180 709Q208 709 223 691T238 643Q238 615 231 589T208
540T171 495Z" />
<glyph unicode="&#x201a;" glyph-name="quotesinglbase" horiz-adv-x="233" d="M77 -100Q65 -111 53 -111T34 -105T26 -86T38 -63Q60 -41 70 -23T84 20L91 -4Q63 -4 46 12T28 56Q28 82 44 98T87 114Q114 114 128 96T143 49Q143 21 136 -5T114 -54T77 -100Z" />
<glyph unicode="&#x201c;" glyph-name="quotedblleft" horiz-adv-x="405" d="M173 694Q185 705 197 705T216 699T224 680T212 657Q191 635 181 617T166 575L160 598Q188 598 205 582T222 539Q222 513 207 497T164 480Q137 480 122 498T107 546Q107 574 114 600T137
649T173 694ZM345 694Q357 705 369 705T388 699T396 680T384 657Q363 635 353 617T338 575L332 598Q360 598 377 582T394 539Q394 513 379 497T336 480Q309 480 294 498T279 546Q279 574 286 600T309 649T345 694Z" />
<glyph unicode="&#x201d;" glyph-name="quotedblright" horiz-adv-x="405" d="M171 495Q158 484 147 484T128 490T120 509T132 532Q154 554 164 572T178 614L184 591Q156 591 139 607T122 650Q122 676 138 692T180 709Q208 709 223 691T238 643Q238 615 231 589T208
540T171 495ZM343 495Q330 484 319 484T300 490T292 509T304 532Q326 554 336 572T350 614L356 591Q328 591 311 607T294 650Q294 676 310 692T352 709Q380 709 395 691T410 643Q410 615 403 589T380 540T343 495Z" />
<glyph unicode="&#x201e;" glyph-name="quotedblbase" horiz-adv-x="405" d="M77 -100Q65 -111 53 -111T34 -105T26 -86T38 -63Q60 -41 70 -23T84 20L91 -4Q63 -4 46 12T28 56Q28 82 44 98T87 114Q114 114 128 96T143 49Q143 21 136 -5T114 -54T77 -100ZM249 -100Q237
-111 225 -111T206 -105T198 -86T210 -63Q232 -41 242 -23T256 20L263 -4Q235 -4 218 12T200 56Q200 82 216 98T259 114Q286 114 300 96T315 49Q315 21 308 -5T286 -54T249 -100Z" />
<glyph unicode="&#x2022;" glyph-name="bullet" horiz-adv-x="524" d="M265 88Q216 88 175 111T109 175T84 265Q84 311 107 351T172 417T265 443Q313 443 354 420T421 357T446 265Q446 216 422 176T356 112T265 88Z" />
<glyph unicode="&#x2039;" glyph-name="guilsinglleft" horiz-adv-x="266" d="M167 90Q150 84 136 89T114 112L62 235Q57 249 58 265T71 296L175 432Q184 443 197 446T223 443Q237 435 239 420T226 383L142 262L184 138Q190 121 186 109T167 90Z" />
<glyph unicode="&#x203a;" glyph-name="guilsinglright" horiz-adv-x="266" d="M50 89Q36 97 34 113T47 149L131 270L89 394Q83 412 87 424T106 441Q123 448 137 442T158 420L210 297Q216 284 215 268T202 236L97 100Q89 89 76 86T50 89Z" />
</font>
</defs>
</svg>
